<?xml version="1.0" encoding="UTF-8" standalone="no"?>
<svg
   xmlns:ns9="http://www.iki.fi/pav/software/textext/"
   xmlns:dc="http://purl.org/dc/elements/1.1/"
   xmlns:cc="http://creativecommons.org/ns#"
   xmlns:rdf="http://www.w3.org/1999/02/22-rdf-syntax-ns#"
   xmlns:svg="http://www.w3.org/2000/svg"
   xmlns="http://www.w3.org/2000/svg"
   xmlns:sodipodi="http://sodipodi.sourceforge.net/DTD/sodipodi-0.dtd"
   xmlns:inkscape="http://www.inkscape.org/namespaces/inkscape"
   version="1.1"
   id="svg2"
   width="790"
   height="509"
   viewBox="0 0 790 509"
   sodipodi:docname="h1.svg"
   inkscape:version="1.0.2 (1.0.2+r75+1)">
  <metadata
     id="metadata8">
    <rdf:RDF>
      <cc:Work
         rdf:about="">
        <dc:format>image/svg+xml</dc:format>
        <dc:type
           rdf:resource="http://purl.org/dc/dcmitype/StillImage" />
        <dc:title />
      </cc:Work>
    </rdf:RDF>
  </metadata>
  <defs
     id="defs6">
    <clipPath
       clipPathUnits="userSpaceOnUse"
       id="clipPath1040">
      <path
         d="m 40.91,47.25 h 268.2 V 587.02 H 40.91 Z"
         id="path1038" />
    </clipPath>
    <clipPath
       clipPathUnits="userSpaceOnUse"
       id="clipPath1629">
      <path
         d="M 0,0 H 592.5 V 381.75 H 0 Z"
         id="path1627" />
    </clipPath>
    <clipPath
       clipPathUnits="userSpaceOnUse"
       id="clipPath1639">
      <path
         d="M 40.91,47.25 H 519.86 V 376.27 H 40.91 Z"
         id="path1637" />
    </clipPath>
    <clipPath
       clipPathUnits="userSpaceOnUse"
       id="clipPath3787">
      <path
         d="M 0,0 H 592.5 V 381.75 H 0 Z"
         id="path3785" />
    </clipPath>
    <clipPath
       clipPathUnits="userSpaceOnUse"
       id="clipPath3797">
      <path
         d="M 40.91,47.25 H 519.86 V 376.27 H 40.91 Z"
         id="path3795" />
    </clipPath>
  </defs>
  <sodipodi:namedview
     pagecolor="#ffffff"
     bordercolor="#666666"
     borderopacity="1"
     objecttolerance="10"
     gridtolerance="10"
     guidetolerance="10"
     inkscape:pageopacity="0"
     inkscape:pageshadow="2"
     inkscape:window-width="1920"
     inkscape:window-height="1016"
     id="namedview4"
     showgrid="false"
     inkscape:zoom="0.89012729"
     inkscape:cx="542.21693"
     inkscape:cy="231.353"
     inkscape:window-x="0"
     inkscape:window-y="27"
     inkscape:window-maximized="1"
     inkscape:current-layer="g10"
     inkscape:document-rotation="0" />
  <g
     inkscape:groupmode="layer"
     inkscape:label="Image"
     id="g10">
    <g
       id="g4599"
       inkscape:export-xdpi="98.845413"
       inkscape:export-ydpi="98.845413">
      <g
         transform="matrix(3.85148,0,0,3.85148,401.81424,107.184)"
         ns9:version="1.3.0"
         ns9:texconverter="pdflatex"
         ns9:pdfconverter="inkscape"
         ns9:text="$f(x)=b\\frac{k^n}{k^n+x^n}$"
         ns9:preamble="/home/andbrav/.config/inkscape/extensions/textext/default_packages.tex"
         ns9:scale="2.8886130882020353"
         ns9:alignment="middle center"
         ns9:inkscapeversion="1.0.2"
         ns9:jacobian_sqrt="3.85148"
         id="g903">
        <defs
           id="id-d91daca0-4030-4fd3-9953-709a2647408d">
          <g
             id="id-5620bbf7-b5cd-490c-a9c4-5cf911c4622e">
            <symbol
               overflow="visible"
               id="id-67f0a5bf-e627-4209-b603-b3f608fe0d23">
              <path
                 style="stroke:none"
                 d=""
                 id="id-03041e9d-e7e5-48a7-b13d-d6347630a858" />
            </symbol>
            <symbol
               overflow="visible"
               id="id-76d5b562-4076-47d2-9287-d1cc81c724f9">
              <path
                 style="stroke:none"
                 d="m 3.65625,-3.984375 h 0.859375 c 0.203125,0 0.296875,0 0.296875,-0.203125 0,-0.109375 -0.09375,-0.109375 -0.265625,-0.109375 H 3.71875 L 3.921875,-5.4375 c 0.046875,-0.203125 0.1875,-0.90625 0.25,-1.03125 0.078125,-0.1875 0.25,-0.34375 0.46875,-0.34375 0.03125,0 0.296875,0 0.484375,0.1875 -0.4375,0.03125 -0.546875,0.390625 -0.546875,0.53125 0,0.234375 0.1875,0.359375 0.375,0.359375 C 5.21875,-5.734375 5.5,-5.96875 5.5,-6.34375 c 0,-0.453125 -0.453125,-0.6875 -0.859375,-0.6875 -0.34375,0 -0.96875,0.1875 -1.265625,1.171875 -0.0625,0.203125 -0.09375,0.3125 -0.328125,1.5625 h -0.6875 c -0.203125,0 -0.3125,0 -0.3125,0.1875 0,0.125 0.09375,0.125 0.28125,0.125 h 0.65625 L 2.25,-0.046875 c -0.1875,0.96875 -0.359375,1.875 -0.875,1.875 -0.046875,0 -0.28125,0 -0.484375,-0.1875 C 1.359375,1.609375 1.453125,1.25 1.453125,1.109375 1.453125,0.875 1.265625,0.75 1.078125,0.75 0.8125,0.75 0.53125,0.984375 0.53125,1.359375 c 0,0.4375 0.4375,0.6875 0.84375,0.6875 0.546875,0 0.953125,-0.59375 1.125,-0.96875 0.328125,-0.625 0.546875,-1.828125 0.5625,-1.90625 z m 0,0"
                 id="id-331c2862-4467-414d-8551-18226c61d847" />
            </symbol>
            <symbol
               overflow="visible"
               id="id-7c5c119e-b822-44e6-a4c9-a8ff199ad3d7">
              <path
                 style="stroke:none"
                 d="M 3.328125,-3.015625 C 3.390625,-3.265625 3.625,-4.1875 4.3125,-4.1875 c 0.046875,0 0.296875,0 0.5,0.125 C 4.53125,-4 4.34375,-3.765625 4.34375,-3.515625 c 0,0.15625 0.109375,0.34375 0.375,0.34375 0.21875,0 0.53125,-0.171875 0.53125,-0.578125 0,-0.515625 -0.578125,-0.65625 -0.921875,-0.65625 -0.578125,0 -0.921875,0.53125 -1.046875,0.75 -0.25,-0.65625 -0.78125,-0.75 -1.078125,-0.75 -1.03125,0 -1.609375,1.28125 -1.609375,1.53125 0,0.109375 0.109375,0.109375 0.125,0.109375 0.078125,0 0.109375,-0.03125 0.125,-0.109375 0.34375,-1.0625 1,-1.3125 1.34375,-1.3125 0.1875,0 0.53125,0.09375 0.53125,0.671875 0,0.3125 -0.171875,0.96875 -0.53125,2.375 -0.15625,0.609375 -0.515625,1.03125 -0.953125,1.03125 -0.0625,0 -0.28125,0 -0.5,-0.125 0.25,-0.0625 0.46875,-0.265625 0.46875,-0.546875 0,-0.265625 -0.21875,-0.34375 -0.359375,-0.34375 -0.3125,0 -0.546875,0.25 -0.546875,0.578125 0,0.453125 0.484375,0.65625 0.921875,0.65625 0.671875,0 1.03125,-0.703125 1.046875,-0.75 0.125,0.359375 0.484375,0.75 1.078125,0.75 1.03125,0 1.59375,-1.28125 1.59375,-1.53125 0,-0.109375 -0.078125,-0.109375 -0.109375,-0.109375 -0.09375,0 -0.109375,0.046875 -0.140625,0.109375 -0.328125,1.078125 -1,1.3125 -1.3125,1.3125 -0.390625,0 -0.546875,-0.3125 -0.546875,-0.65625 0,-0.21875 0.046875,-0.4375 0.15625,-0.875 z m 0,0"
                 id="id-7b051506-5c28-489e-ba84-9ab907322841" />
            </symbol>
            <symbol
               overflow="visible"
               id="id-d3fe74ba-77fe-4c32-8f16-8b4ae4660422">
              <path
                 style="stroke:none"
                 d="m 2.375,-6.8125 c 0,0 0,-0.109375 -0.125,-0.109375 -0.21875,0 -0.953125,0.078125 -1.21875,0.109375 -0.078125,0 -0.1875,0.015625 -0.1875,0.1875 0,0.125 0.09375,0.125 0.25,0.125 0.46875,0 0.484375,0.0625 0.484375,0.171875 0,0.0625 -0.078125,0.40625 -0.125,0.609375 l -0.828125,3.25 c -0.109375,0.5 -0.15625,0.671875 -0.15625,1.015625 0,0.9375 0.53125,1.5625 1.265625,1.5625 1.171875,0 2.40625,-1.484375 2.40625,-2.921875 0,-0.90625 -0.53125,-1.59375 -1.328125,-1.59375 -0.453125,0 -0.875,0.296875 -1.171875,0.59375 z M 1.453125,-3.046875 C 1.5,-3.265625 1.5,-3.28125 1.59375,-3.390625 2.078125,-4.03125 2.53125,-4.1875 2.796875,-4.1875 c 0.359375,0 0.625,0.296875 0.625,0.9375 0,0.59375 -0.328125,1.734375 -0.515625,2.109375 -0.328125,0.671875 -0.78125,1.03125 -1.171875,1.03125 -0.34375,0 -0.671875,-0.265625 -0.671875,-1 0,-0.203125 0,-0.390625 0.15625,-1.015625 z m 0,0"
                 id="id-b48ac0df-ea74-4a51-953d-c8c2bbb75d38" />
            </symbol>
            <symbol
               overflow="visible"
               id="id-efc54494-a200-4094-860d-14824f901234">
              <path
                 style="stroke:none"
                 d=""
                 id="id-6a6a8619-64c0-4358-bbc1-10df7b5619da" />
            </symbol>
            <symbol
               overflow="visible"
               id="id-b57df70e-d97d-4c8a-b024-a144568e201a">
              <path
                 style="stroke:none"
                 d="m 3.296875,2.390625 c 0,-0.03125 0,-0.046875 -0.171875,-0.21875 C 1.890625,0.921875 1.5625,-0.96875 1.5625,-2.5 c 0,-1.734375 0.375,-3.46875 1.609375,-4.703125 0.125,-0.125 0.125,-0.140625 0.125,-0.171875 0,-0.078125 -0.03125,-0.109375 -0.09375,-0.109375 -0.109375,0 -1,0.6875 -1.59375,1.953125 -0.5,1.09375 -0.625,2.203125 -0.625,3.03125 0,0.78125 0.109375,1.984375 0.65625,3.125 C 2.25,1.84375 3.09375,2.5 3.203125,2.5 c 0.0625,0 0.09375,-0.03125 0.09375,-0.109375 z m 0,0"
                 id="id-125bf7e9-f594-4bda-b45a-73761fd7f703" />
            </symbol>
            <symbol
               overflow="visible"
               id="id-d9fa9d0b-a022-4686-846f-af2c1697571b">
              <path
                 style="stroke:none"
                 d="m 2.875,-2.5 c 0,-0.765625 -0.109375,-1.96875 -0.65625,-3.109375 -0.59375,-1.21875 -1.453125,-1.875 -1.546875,-1.875 -0.0625,0 -0.109375,0.046875 -0.109375,0.109375 0,0.03125 0,0.046875 0.1875,0.234375 0.984375,0.984375 1.546875,2.5625 1.546875,4.640625 0,1.71875 -0.359375,3.46875 -1.59375,4.71875 C 0.5625,2.34375 0.5625,2.359375 0.5625,2.390625 0.5625,2.453125 0.609375,2.5 0.671875,2.5 0.765625,2.5 1.671875,1.8125 2.25,0.546875 2.765625,-0.546875 2.875,-1.65625 2.875,-2.5 Z m 0,0"
                 id="id-d61333e6-a8c0-4689-8993-82cc98527313" />
            </symbol>
            <symbol
               overflow="visible"
               id="id-d133a390-acea-4e4c-bd6f-a9e3735bc269">
              <path
                 style="stroke:none"
                 d="m 6.84375,-3.265625 c 0.15625,0 0.34375,0 0.34375,-0.1875 C 7.1875,-3.65625 7,-3.65625 6.859375,-3.65625 h -5.96875 c -0.140625,0 -0.328125,0 -0.328125,0.203125 0,0.1875 0.1875,0.1875 0.328125,0.1875 z m 0.015625,1.9375 c 0.140625,0 0.328125,0 0.328125,-0.203125 0,-0.1875 -0.1875,-0.1875 -0.34375,-0.1875 H 0.890625 c -0.140625,0 -0.328125,0 -0.328125,0.1875 0,0.203125 0.1875,0.203125 0.328125,0.203125 z m 0,0"
                 id="id-2e9421fc-b156-4332-9b64-875464a06a82" />
            </symbol>
            <symbol
               overflow="visible"
               id="id-33044a8f-f36d-413b-8e56-5f25a5dddf16">
              <path
                 style="stroke:none"
                 d=""
                 id="id-460335be-69a7-4f7e-ae22-944716e74d7c" />
            </symbol>
            <symbol
               overflow="visible"
               id="id-18974d8e-31d9-4266-b9dc-bc704dfdb313">
              <path
                 style="stroke:none"
                 d="m 2.1875,-4.625 c 0,-0.015625 0.015625,-0.109375 0.015625,-0.109375 0,-0.046875 -0.015625,-0.109375 -0.109375,-0.109375 -0.140625,0 -0.71875,0.0625 -0.890625,0.078125 -0.046875,0 -0.15625,0.015625 -0.15625,0.15625 0,0.09375 0.109375,0.09375 0.1875,0.09375 0.328125,0 0.328125,0.0625 0.328125,0.109375 0,0.046875 -0.015625,0.09375 -0.015625,0.15625 L 0.5625,-0.3125 c -0.046875,0.125 -0.046875,0.140625 -0.046875,0.15625 0,0.109375 0.09375,0.21875 0.25,0.21875 0.1875,0 0.265625,-0.125 0.3125,-0.28125 0.015625,-0.03125 0.3125,-1.265625 0.34375,-1.359375 0.5,0.046875 0.890625,0.21875 0.890625,0.578125 0,0.03125 0,0.0625 -0.015625,0.140625 -0.03125,0.09375 -0.03125,0.140625 -0.03125,0.21875 0,0.484375 0.40625,0.703125 0.75,0.703125 0.671875,0 0.875,-1.046875 0.875,-1.0625 0,-0.09375 -0.078125,-0.09375 -0.109375,-0.09375 -0.09375,0 -0.109375,0.046875 -0.140625,0.171875 C 3.5625,-0.625 3.375,-0.125 3.03125,-0.125 c -0.1875,0 -0.25,-0.171875 -0.25,-0.359375 0,-0.125 0,-0.140625 0.046875,-0.3125 0.015625,-0.03125 0.03125,-0.140625 0.03125,-0.21875 0,-0.625 -0.828125,-0.71875 -1.125,-0.734375 C 1.9375,-1.875 2.1875,-2.109375 2.3125,-2.21875 2.671875,-2.546875 3.015625,-2.875 3.40625,-2.875 c 0.078125,0 0.171875,0.015625 0.234375,0.09375 C 3.34375,-2.734375 3.28125,-2.5 3.28125,-2.390625 c 0,0.140625 0.109375,0.25 0.265625,0.25 0.203125,0 0.40625,-0.15625 0.40625,-0.4375 0,-0.234375 -0.171875,-0.5 -0.53125,-0.5 -0.40625,0 -0.765625,0.296875 -1.125,0.625 C 2,-2.1875 1.78125,-1.96875 1.484375,-1.84375 Z m 0,0"
                 id="id-7c2eda3a-28ae-4be1-8fea-c0542b08bbee" />
            </symbol>
            <symbol
               overflow="visible"
               id="id-f3111a8c-46cf-4f9d-bd29-ae87a86bc51a">
              <path
                 style="stroke:none"
                 d="M 1.734375,-0.734375 C 1.671875,-0.5 1.4375,-0.125 1.078125,-0.125 c -0.015625,0 -0.234375,0 -0.375,-0.09375 0.28125,-0.09375 0.3125,-0.34375 0.3125,-0.390625 0,-0.15625 -0.125,-0.25 -0.28125,-0.25 -0.203125,0 -0.40625,0.15625 -0.40625,0.421875 0,0.34375 0.390625,0.5 0.734375,0.5 0.328125,0 0.609375,-0.1875 0.78125,-0.484375 C 2.015625,-0.0625 2.390625,0.0625 2.671875,0.0625 c 0.8125,0 1.234375,-0.859375 1.234375,-1.0625 0,-0.09375 -0.09375,-0.09375 -0.109375,-0.09375 -0.109375,0 -0.109375,0.046875 -0.140625,0.125 -0.140625,0.484375 -0.5625,0.84375 -0.953125,0.84375 -0.28125,0 -0.421875,-0.1875 -0.421875,-0.453125 0,-0.1875 0.171875,-0.8125 0.359375,-1.59375 C 2.78125,-2.703125 3.09375,-2.875 3.328125,-2.875 c 0.015625,0 0.21875,0 0.375,0.09375 -0.21875,0.0625 -0.3125,0.265625 -0.3125,0.390625 0,0.140625 0.125,0.25 0.28125,0.25 0.15625,0 0.390625,-0.125 0.390625,-0.421875 0,-0.390625 -0.453125,-0.515625 -0.71875,-0.515625 -0.359375,0 -0.640625,0.234375 -0.78125,0.5 -0.125,-0.28125 -0.453125,-0.5 -0.84375,-0.5 C 0.9375,-3.078125 0.5,-2.21875 0.5,-2 c 0,0.078125 0.09375,0.078125 0.109375,0.078125 0.09375,0 0.09375,-0.015625 0.140625,-0.109375 C 0.921875,-2.578125 1.359375,-2.875 1.703125,-2.875 1.9375,-2.875 2.125,-2.75 2.125,-2.421875 2.125,-2.28125 2.03125,-1.9375 1.96875,-1.6875 Z m 0,0"
                 id="id-9fff3acd-8da3-4a18-811a-4c680153e4a4" />
            </symbol>
            <symbol
               overflow="visible"
               id="id-57c29f46-ca71-471e-9034-b8c5b920b8cd">
              <path
                 style="stroke:none"
                 d=""
                 id="id-7b23307a-3b82-4832-8070-ab3e7c165a43" />
            </symbol>
            <symbol
               overflow="visible"
               id="id-b5670b98-9d24-45b6-a02c-e535dfb910ae">
              <path
                 style="stroke:none"
                 d="m 0.96875,-0.484375 c -0.03125,0.125 -0.078125,0.34375 -0.078125,0.359375 0,0.109375 0.09375,0.1875 0.1875,0.1875 0.0625,0 0.171875,-0.046875 0.234375,-0.171875 0,-0.03125 0.0625,-0.265625 0.09375,-0.390625 0.171875,-0.671875 0.171875,-0.6875 0.171875,-0.703125 0.078125,-0.125 0.4375,-0.828125 1.03125,-0.828125 0.25,0 0.359375,0.125 0.359375,0.359375 0,0.28125 -0.21875,0.796875 -0.328125,1.078125 -0.03125,0.0625 -0.046875,0.125 -0.046875,0.203125 0,0.265625 0.25,0.453125 0.546875,0.453125 0.53125,0 0.796875,-0.65625 0.796875,-0.78125 0,-0.0625 -0.078125,-0.0625 -0.09375,-0.0625 -0.09375,0 -0.09375,0.015625 -0.125,0.109375 C 3.625,-0.375 3.390625,-0.109375 3.15625,-0.109375 3.046875,-0.109375 3,-0.1875 3,-0.296875 3,-0.40625 3.03125,-0.453125 3.078125,-0.5625 c 0.078125,-0.203125 0.3125,-0.765625 0.3125,-1.046875 0,-0.375 -0.265625,-0.59375 -0.75,-0.59375 -0.453125,0 -0.765625,0.28125 -0.9375,0.5 -0.015625,-0.421875 -0.421875,-0.5 -0.609375,-0.5 -0.5,0 -0.640625,0.765625 -0.640625,0.765625 0,0.078125 0.078125,0.078125 0.109375,0.078125 0.078125,0 0.09375,-0.03125 0.109375,-0.09375 C 0.75,-1.75 0.859375,-2.03125 1.078125,-2.03125 c 0.15625,0 0.203125,0.15625 0.203125,0.265625 0,0.0625 -0.0625,0.25 -0.078125,0.390625 -0.046875,0.125 -0.09375,0.328125 -0.109375,0.4375 z m 0,0"
                 id="id-5fdb0fa8-94bc-4e2a-983d-6a1bd7cb7a2b" />
            </symbol>
            <symbol
               overflow="visible"
               id="id-c4e28d57-3c87-4efb-9e8c-6290ba350dad">
              <path
                 style="stroke:none"
                 d=""
                 id="id-fd25aeba-d9f7-4fa2-9e4e-72e085f0db1e" />
            </symbol>
            <symbol
               overflow="visible"
               id="id-c32acffb-fad1-4cca-9841-aeabe3545a77">
              <path
                 style="stroke:none"
                 d="m 3.21875,-1.578125 h 2.140625 c 0.09375,0 0.25,0 0.25,-0.15625 0,-0.1875 -0.15625,-0.1875 -0.25,-0.1875 H 3.21875 V -4.0625 c 0,-0.078125 0,-0.25 -0.15625,-0.25 -0.171875,0 -0.171875,0.15625 -0.171875,0.25 v 2.140625 H 0.75 c -0.09375,0 -0.265625,0 -0.265625,0.171875 0,0.171875 0.15625,0.171875 0.265625,0.171875 H 2.890625 V 0.5625 c 0,0.09375 0,0.265625 0.15625,0.265625 0.171875,0 0.171875,-0.171875 0.171875,-0.265625 z m 0,0"
                 id="id-f8d97f90-08f5-4e69-b50b-e5ab761555c1" />
            </symbol>
          </g>
        </defs>
        <g
           id="id-6d65baf3-874c-4f2f-86ef-6c9dcc872811"
           transform="translate(-149.243,-125.633)">
          <g
             style="fill:#000000;fill-opacity:1"
             id="id-29571a49-6a09-41b0-9bb5-81ef5e8375c4">
            <g
               transform="translate(148.712,134.765)"
               id="g2813">
              <path
                 style="stroke:none"
                 d="m 3.65625,-3.984375 h 0.859375 c 0.203125,0 0.296875,0 0.296875,-0.203125 0,-0.109375 -0.09375,-0.109375 -0.265625,-0.109375 H 3.71875 L 3.921875,-5.4375 c 0.046875,-0.203125 0.1875,-0.90625 0.25,-1.03125 0.078125,-0.1875 0.25,-0.34375 0.46875,-0.34375 0.03125,0 0.296875,0 0.484375,0.1875 -0.4375,0.03125 -0.546875,0.390625 -0.546875,0.53125 0,0.234375 0.1875,0.359375 0.375,0.359375 C 5.21875,-5.734375 5.5,-5.96875 5.5,-6.34375 c 0,-0.453125 -0.453125,-0.6875 -0.859375,-0.6875 -0.34375,0 -0.96875,0.1875 -1.265625,1.171875 -0.0625,0.203125 -0.09375,0.3125 -0.328125,1.5625 h -0.6875 c -0.203125,0 -0.3125,0 -0.3125,0.1875 0,0.125 0.09375,0.125 0.28125,0.125 h 0.65625 L 2.25,-0.046875 c -0.1875,0.96875 -0.359375,1.875 -0.875,1.875 -0.046875,0 -0.28125,0 -0.484375,-0.1875 C 1.359375,1.609375 1.453125,1.25 1.453125,1.109375 1.453125,0.875 1.265625,0.75 1.078125,0.75 0.8125,0.75 0.53125,0.984375 0.53125,1.359375 c 0,0.4375 0.4375,0.6875 0.84375,0.6875 0.546875,0 0.953125,-0.59375 1.125,-0.96875 0.328125,-0.625 0.546875,-1.828125 0.5625,-1.90625 z m 0,0"
                 id="id-ea4f43a2-17a2-426b-9073-6abc293e03b6" />
            </g>
          </g>
          <g
             style="fill:#000000;fill-opacity:1"
             id="id-d08380e4-e9b0-4fb3-a54b-42b3f522b950">
            <g
               transform="translate(154.662,134.765)"
               id="g2817">
              <path
                 style="stroke:none"
                 d="m 3.296875,2.390625 c 0,-0.03125 0,-0.046875 -0.171875,-0.21875 C 1.890625,0.921875 1.5625,-0.96875 1.5625,-2.5 c 0,-1.734375 0.375,-3.46875 1.609375,-4.703125 0.125,-0.125 0.125,-0.140625 0.125,-0.171875 0,-0.078125 -0.03125,-0.109375 -0.09375,-0.109375 -0.109375,0 -1,0.6875 -1.59375,1.953125 -0.5,1.09375 -0.625,2.203125 -0.625,3.03125 0,0.78125 0.109375,1.984375 0.65625,3.125 C 2.25,1.84375 3.09375,2.5 3.203125,2.5 c 0.0625,0 0.09375,-0.03125 0.09375,-0.109375 z m 0,0"
                 id="id-589b17b0-951b-4341-a717-532860327bf1" />
            </g>
          </g>
          <g
             style="fill:#000000;fill-opacity:1"
             id="id-21c0ec71-a1a7-4210-9cf9-79b032eab0c3">
            <g
               transform="translate(158.537,134.765)"
               id="g2821">
              <path
                 style="stroke:none"
                 d="M 3.328125,-3.015625 C 3.390625,-3.265625 3.625,-4.1875 4.3125,-4.1875 c 0.046875,0 0.296875,0 0.5,0.125 C 4.53125,-4 4.34375,-3.765625 4.34375,-3.515625 c 0,0.15625 0.109375,0.34375 0.375,0.34375 0.21875,0 0.53125,-0.171875 0.53125,-0.578125 0,-0.515625 -0.578125,-0.65625 -0.921875,-0.65625 -0.578125,0 -0.921875,0.53125 -1.046875,0.75 -0.25,-0.65625 -0.78125,-0.75 -1.078125,-0.75 -1.03125,0 -1.609375,1.28125 -1.609375,1.53125 0,0.109375 0.109375,0.109375 0.125,0.109375 0.078125,0 0.109375,-0.03125 0.125,-0.109375 0.34375,-1.0625 1,-1.3125 1.34375,-1.3125 0.1875,0 0.53125,0.09375 0.53125,0.671875 0,0.3125 -0.171875,0.96875 -0.53125,2.375 -0.15625,0.609375 -0.515625,1.03125 -0.953125,1.03125 -0.0625,0 -0.28125,0 -0.5,-0.125 0.25,-0.0625 0.46875,-0.265625 0.46875,-0.546875 0,-0.265625 -0.21875,-0.34375 -0.359375,-0.34375 -0.3125,0 -0.546875,0.25 -0.546875,0.578125 0,0.453125 0.484375,0.65625 0.921875,0.65625 0.671875,0 1.03125,-0.703125 1.046875,-0.75 0.125,0.359375 0.484375,0.75 1.078125,0.75 1.03125,0 1.59375,-1.28125 1.59375,-1.53125 0,-0.109375 -0.078125,-0.109375 -0.109375,-0.109375 -0.09375,0 -0.109375,0.046875 -0.140625,0.109375 -0.328125,1.078125 -1,1.3125 -1.3125,1.3125 -0.390625,0 -0.546875,-0.3125 -0.546875,-0.65625 0,-0.21875 0.046875,-0.4375 0.15625,-0.875 z m 0,0"
                 id="id-80d2f2aa-0e0a-43e3-92dc-43efa867348c" />
            </g>
          </g>
          <g
             style="fill:#000000;fill-opacity:1"
             id="id-fc5080d3-ea16-4ceb-9d77-3a4a85027b33">
            <g
               transform="translate(164.231,134.765)"
               id="g2825">
              <path
                 style="stroke:none"
                 d="m 2.875,-2.5 c 0,-0.765625 -0.109375,-1.96875 -0.65625,-3.109375 -0.59375,-1.21875 -1.453125,-1.875 -1.546875,-1.875 -0.0625,0 -0.109375,0.046875 -0.109375,0.109375 0,0.03125 0,0.046875 0.1875,0.234375 0.984375,0.984375 1.546875,2.5625 1.546875,4.640625 0,1.71875 -0.359375,3.46875 -1.59375,4.71875 C 0.5625,2.34375 0.5625,2.359375 0.5625,2.390625 0.5625,2.453125 0.609375,2.5 0.671875,2.5 0.765625,2.5 1.671875,1.8125 2.25,0.546875 2.765625,-0.546875 2.875,-1.65625 2.875,-2.5 Z m 0,0"
                 id="id-861f8481-0988-4ca9-a1ff-b902c3e5db10" />
            </g>
          </g>
          <g
             style="fill:#000000;fill-opacity:1"
             id="id-36118c2d-2b74-4374-9f16-7ba1fc93e52e">
            <g
               transform="translate(170.875,134.765)"
               id="g2829">
              <path
                 style="stroke:none"
                 d="m 6.84375,-3.265625 c 0.15625,0 0.34375,0 0.34375,-0.1875 C 7.1875,-3.65625 7,-3.65625 6.859375,-3.65625 h -5.96875 c -0.140625,0 -0.328125,0 -0.328125,0.203125 0,0.1875 0.1875,0.1875 0.328125,0.1875 z m 0.015625,1.9375 c 0.140625,0 0.328125,0 0.328125,-0.203125 0,-0.1875 -0.1875,-0.1875 -0.34375,-0.1875 H 0.890625 c -0.140625,0 -0.328125,0 -0.328125,0.1875 0,0.203125 0.1875,0.203125 0.328125,0.203125 z m 0,0"
                 id="id-c7e82438-6c1b-4fbb-a0d4-f12f5a96ccf5" />
            </g>
          </g>
          <g
             style="fill:#000000;fill-opacity:1"
             id="id-98c7b535-617d-4004-a333-aad541010561">
            <g
               transform="translate(181.388,134.765)"
               id="g2833">
              <path
                 style="stroke:none"
                 d="m 2.375,-6.8125 c 0,0 0,-0.109375 -0.125,-0.109375 -0.21875,0 -0.953125,0.078125 -1.21875,0.109375 -0.078125,0 -0.1875,0.015625 -0.1875,0.1875 0,0.125 0.09375,0.125 0.25,0.125 0.46875,0 0.484375,0.0625 0.484375,0.171875 0,0.0625 -0.078125,0.40625 -0.125,0.609375 l -0.828125,3.25 c -0.109375,0.5 -0.15625,0.671875 -0.15625,1.015625 0,0.9375 0.53125,1.5625 1.265625,1.5625 1.171875,0 2.40625,-1.484375 2.40625,-2.921875 0,-0.90625 -0.53125,-1.59375 -1.328125,-1.59375 -0.453125,0 -0.875,0.296875 -1.171875,0.59375 z M 1.453125,-3.046875 C 1.5,-3.265625 1.5,-3.28125 1.59375,-3.390625 2.078125,-4.03125 2.53125,-4.1875 2.796875,-4.1875 c 0.359375,0 0.625,0.296875 0.625,0.9375 0,0.59375 -0.328125,1.734375 -0.515625,2.109375 -0.328125,0.671875 -0.78125,1.03125 -1.171875,1.03125 -0.34375,0 -0.671875,-0.265625 -0.671875,-1 0,-0.203125 0,-0.390625 0.15625,-1.015625 z m 0,0"
                 id="id-b8ab9299-a009-4fed-b1f7-805a5673dfca" />
            </g>
          </g>
          <g
             style="fill:#000000;fill-opacity:1"
             id="id-a696ccd8-2814-4e49-963c-ffbe541412c0">
            <g
               transform="translate(194.619,130.842)"
               id="g2837">
              <path
                 style="stroke:none"
                 d="m 2.1875,-4.625 c 0,-0.015625 0.015625,-0.109375 0.015625,-0.109375 0,-0.046875 -0.015625,-0.109375 -0.109375,-0.109375 -0.140625,0 -0.71875,0.0625 -0.890625,0.078125 -0.046875,0 -0.15625,0.015625 -0.15625,0.15625 0,0.09375 0.109375,0.09375 0.1875,0.09375 0.328125,0 0.328125,0.0625 0.328125,0.109375 0,0.046875 -0.015625,0.09375 -0.015625,0.15625 L 0.5625,-0.3125 c -0.046875,0.125 -0.046875,0.140625 -0.046875,0.15625 0,0.109375 0.09375,0.21875 0.25,0.21875 0.1875,0 0.265625,-0.125 0.3125,-0.28125 0.015625,-0.03125 0.3125,-1.265625 0.34375,-1.359375 0.5,0.046875 0.890625,0.21875 0.890625,0.578125 0,0.03125 0,0.0625 -0.015625,0.140625 -0.03125,0.09375 -0.03125,0.140625 -0.03125,0.21875 0,0.484375 0.40625,0.703125 0.75,0.703125 0.671875,0 0.875,-1.046875 0.875,-1.0625 0,-0.09375 -0.078125,-0.09375 -0.109375,-0.09375 -0.09375,0 -0.109375,0.046875 -0.140625,0.171875 C 3.5625,-0.625 3.375,-0.125 3.03125,-0.125 c -0.1875,0 -0.25,-0.171875 -0.25,-0.359375 0,-0.125 0,-0.140625 0.046875,-0.3125 0.015625,-0.03125 0.03125,-0.140625 0.03125,-0.21875 0,-0.625 -0.828125,-0.71875 -1.125,-0.734375 C 1.9375,-1.875 2.1875,-2.109375 2.3125,-2.21875 2.671875,-2.546875 3.015625,-2.875 3.40625,-2.875 c 0.078125,0 0.171875,0.015625 0.234375,0.09375 C 3.34375,-2.734375 3.28125,-2.5 3.28125,-2.390625 c 0,0.140625 0.109375,0.25 0.265625,0.25 0.203125,0 0.40625,-0.15625 0.40625,-0.4375 0,-0.234375 -0.171875,-0.5 -0.53125,-0.5 -0.40625,0 -0.765625,0.296875 -1.125,0.625 C 2,-2.1875 1.78125,-1.96875 1.484375,-1.84375 Z m 0,0"
                 id="id-cbe31d9f-4ffb-43c2-aea4-4e198520efca" />
            </g>
          </g>
          <g
             style="fill:#000000;fill-opacity:1"
             id="id-52c053f0-7bf0-4f7b-8c7e-12b7ff748490">
            <g
               transform="translate(199.023,127.836)"
               id="g2841">
              <path
                 style="stroke:none"
                 d="m 0.96875,-0.484375 c -0.03125,0.125 -0.078125,0.34375 -0.078125,0.359375 0,0.109375 0.09375,0.1875 0.1875,0.1875 0.0625,0 0.171875,-0.046875 0.234375,-0.171875 0,-0.03125 0.0625,-0.265625 0.09375,-0.390625 0.171875,-0.671875 0.171875,-0.6875 0.171875,-0.703125 0.078125,-0.125 0.4375,-0.828125 1.03125,-0.828125 0.25,0 0.359375,0.125 0.359375,0.359375 0,0.28125 -0.21875,0.796875 -0.328125,1.078125 -0.03125,0.0625 -0.046875,0.125 -0.046875,0.203125 0,0.265625 0.25,0.453125 0.546875,0.453125 0.53125,0 0.796875,-0.65625 0.796875,-0.78125 0,-0.0625 -0.078125,-0.0625 -0.09375,-0.0625 -0.09375,0 -0.09375,0.015625 -0.125,0.109375 C 3.625,-0.375 3.390625,-0.109375 3.15625,-0.109375 3.046875,-0.109375 3,-0.1875 3,-0.296875 3,-0.40625 3.03125,-0.453125 3.078125,-0.5625 c 0.078125,-0.203125 0.3125,-0.765625 0.3125,-1.046875 0,-0.375 -0.265625,-0.59375 -0.75,-0.59375 -0.453125,0 -0.765625,0.28125 -0.9375,0.5 -0.015625,-0.421875 -0.421875,-0.5 -0.609375,-0.5 -0.5,0 -0.640625,0.765625 -0.640625,0.765625 0,0.078125 0.078125,0.078125 0.109375,0.078125 0.078125,0 0.09375,-0.03125 0.109375,-0.09375 C 0.75,-1.75 0.859375,-2.03125 1.078125,-2.03125 c 0.15625,0 0.203125,0.15625 0.203125,0.265625 0,0.0625 -0.0625,0.25 -0.078125,0.390625 -0.046875,0.125 -0.09375,0.328125 -0.109375,0.4375 z m 0,0"
                 id="id-9b6d43ed-fb7d-4e52-826b-f18198303865" />
            </g>
          </g>
          <path
             style="fill:none;stroke:#000000;stroke-width:0.398;stroke-linecap:butt;stroke-linejoin:miter;stroke-miterlimit:10;stroke-opacity:1"
             d="M 3.75e-4,5.625e-4 H 24.808969"
             transform="matrix(1,0,0,-1,186.859,132.274)"
             id="id-edd307fc-609c-4d59-812c-836b31885c6d" />
          <g
             style="fill:#000000;fill-opacity:1"
             id="id-ca26f4b4-e31f-4342-bdaf-f5245c67d07a">
            <g
               transform="translate(186.859,138.2)"
               id="g2846">
              <path
                 style="stroke:none"
                 d="m 2.1875,-4.625 c 0,-0.015625 0.015625,-0.109375 0.015625,-0.109375 0,-0.046875 -0.015625,-0.109375 -0.109375,-0.109375 -0.140625,0 -0.71875,0.0625 -0.890625,0.078125 -0.046875,0 -0.15625,0.015625 -0.15625,0.15625 0,0.09375 0.109375,0.09375 0.1875,0.09375 0.328125,0 0.328125,0.0625 0.328125,0.109375 0,0.046875 -0.015625,0.09375 -0.015625,0.15625 L 0.5625,-0.3125 c -0.046875,0.125 -0.046875,0.140625 -0.046875,0.15625 0,0.109375 0.09375,0.21875 0.25,0.21875 0.1875,0 0.265625,-0.125 0.3125,-0.28125 0.015625,-0.03125 0.3125,-1.265625 0.34375,-1.359375 0.5,0.046875 0.890625,0.21875 0.890625,0.578125 0,0.03125 0,0.0625 -0.015625,0.140625 -0.03125,0.09375 -0.03125,0.140625 -0.03125,0.21875 0,0.484375 0.40625,0.703125 0.75,0.703125 0.671875,0 0.875,-1.046875 0.875,-1.0625 0,-0.09375 -0.078125,-0.09375 -0.109375,-0.09375 -0.09375,0 -0.109375,0.046875 -0.140625,0.171875 C 3.5625,-0.625 3.375,-0.125 3.03125,-0.125 c -0.1875,0 -0.25,-0.171875 -0.25,-0.359375 0,-0.125 0,-0.140625 0.046875,-0.3125 0.015625,-0.03125 0.03125,-0.140625 0.03125,-0.21875 0,-0.625 -0.828125,-0.71875 -1.125,-0.734375 C 1.9375,-1.875 2.1875,-2.109375 2.3125,-2.21875 2.671875,-2.546875 3.015625,-2.875 3.40625,-2.875 c 0.078125,0 0.171875,0.015625 0.234375,0.09375 C 3.34375,-2.734375 3.28125,-2.5 3.28125,-2.390625 c 0,0.140625 0.109375,0.25 0.265625,0.25 0.203125,0 0.40625,-0.15625 0.40625,-0.4375 0,-0.234375 -0.171875,-0.5 -0.53125,-0.5 -0.40625,0 -0.765625,0.296875 -1.125,0.625 C 2,-2.1875 1.78125,-1.96875 1.484375,-1.84375 Z m 0,0"
                 id="id-2f1b4e12-3022-49bc-9bcb-b7fcbcc8f155" />
            </g>
          </g>
          <g
             style="fill:#000000;fill-opacity:1"
             id="id-d62c4d3d-3e33-46b6-bedb-33d16acf22c1">
            <g
               transform="translate(191.263,136.208)"
               id="g2850">
              <path
                 style="stroke:none"
                 d="m 0.96875,-0.484375 c -0.03125,0.125 -0.078125,0.34375 -0.078125,0.359375 0,0.109375 0.09375,0.1875 0.1875,0.1875 0.0625,0 0.171875,-0.046875 0.234375,-0.171875 0,-0.03125 0.0625,-0.265625 0.09375,-0.390625 0.171875,-0.671875 0.171875,-0.6875 0.171875,-0.703125 0.078125,-0.125 0.4375,-0.828125 1.03125,-0.828125 0.25,0 0.359375,0.125 0.359375,0.359375 0,0.28125 -0.21875,0.796875 -0.328125,1.078125 -0.03125,0.0625 -0.046875,0.125 -0.046875,0.203125 0,0.265625 0.25,0.453125 0.546875,0.453125 0.53125,0 0.796875,-0.65625 0.796875,-0.78125 0,-0.0625 -0.078125,-0.0625 -0.09375,-0.0625 -0.09375,0 -0.09375,0.015625 -0.125,0.109375 C 3.625,-0.375 3.390625,-0.109375 3.15625,-0.109375 3.046875,-0.109375 3,-0.1875 3,-0.296875 3,-0.40625 3.03125,-0.453125 3.078125,-0.5625 c 0.078125,-0.203125 0.3125,-0.765625 0.3125,-1.046875 0,-0.375 -0.265625,-0.59375 -0.75,-0.59375 -0.453125,0 -0.765625,0.28125 -0.9375,0.5 -0.015625,-0.421875 -0.421875,-0.5 -0.609375,-0.5 -0.5,0 -0.640625,0.765625 -0.640625,0.765625 0,0.078125 0.078125,0.078125 0.109375,0.078125 0.078125,0 0.09375,-0.03125 0.109375,-0.09375 C 0.75,-1.75 0.859375,-2.03125 1.078125,-2.03125 c 0.15625,0 0.203125,0.15625 0.203125,0.265625 0,0.0625 -0.0625,0.25 -0.078125,0.390625 -0.046875,0.125 -0.09375,0.328125 -0.109375,0.4375 z m 0,0"
                 id="id-b0af66c2-7470-44b5-b249-636b1e6d8c47" />
            </g>
          </g>
          <g
             style="fill:#000000;fill-opacity:1"
             id="id-043364dd-ab26-499c-b615-20bfa40f338d">
            <g
               transform="translate(196.149,138.2)"
               id="g2854">
              <path
                 style="stroke:none"
                 d="m 3.21875,-1.578125 h 2.140625 c 0.09375,0 0.25,0 0.25,-0.15625 0,-0.1875 -0.15625,-0.1875 -0.25,-0.1875 H 3.21875 V -4.0625 c 0,-0.078125 0,-0.25 -0.15625,-0.25 -0.171875,0 -0.171875,0.15625 -0.171875,0.25 v 2.140625 H 0.75 c -0.09375,0 -0.265625,0 -0.265625,0.171875 0,0.171875 0.15625,0.171875 0.265625,0.171875 H 2.890625 V 0.5625 c 0,0.09375 0,0.265625 0.15625,0.265625 0.171875,0 0.171875,-0.171875 0.171875,-0.265625 z m 0,0"
                 id="id-4b74dd92-5de9-4a09-bf4b-434f3f2e8685" />
            </g>
          </g>
          <g
             style="fill:#000000;fill-opacity:1"
             id="id-b37d4a60-4c70-49be-9e92-4794811da1c7">
            <g
               transform="translate(202.265,138.2)"
               id="g2858">
              <path
                 style="stroke:none"
                 d="M 1.734375,-0.734375 C 1.671875,-0.5 1.4375,-0.125 1.078125,-0.125 c -0.015625,0 -0.234375,0 -0.375,-0.09375 0.28125,-0.09375 0.3125,-0.34375 0.3125,-0.390625 0,-0.15625 -0.125,-0.25 -0.28125,-0.25 -0.203125,0 -0.40625,0.15625 -0.40625,0.421875 0,0.34375 0.390625,0.5 0.734375,0.5 0.328125,0 0.609375,-0.1875 0.78125,-0.484375 C 2.015625,-0.0625 2.390625,0.0625 2.671875,0.0625 c 0.8125,0 1.234375,-0.859375 1.234375,-1.0625 0,-0.09375 -0.09375,-0.09375 -0.109375,-0.09375 -0.109375,0 -0.109375,0.046875 -0.140625,0.125 -0.140625,0.484375 -0.5625,0.84375 -0.953125,0.84375 -0.28125,0 -0.421875,-0.1875 -0.421875,-0.453125 0,-0.1875 0.171875,-0.8125 0.359375,-1.59375 C 2.78125,-2.703125 3.09375,-2.875 3.328125,-2.875 c 0.015625,0 0.21875,0 0.375,0.09375 -0.21875,0.0625 -0.3125,0.265625 -0.3125,0.390625 0,0.140625 0.125,0.25 0.28125,0.25 0.15625,0 0.390625,-0.125 0.390625,-0.421875 0,-0.390625 -0.453125,-0.515625 -0.71875,-0.515625 -0.359375,0 -0.640625,0.234375 -0.78125,0.5 -0.125,-0.28125 -0.453125,-0.5 -0.84375,-0.5 C 0.9375,-3.078125 0.5,-2.21875 0.5,-2 c 0,0.078125 0.09375,0.078125 0.109375,0.078125 0.09375,0 0.09375,-0.015625 0.140625,-0.109375 C 0.921875,-2.578125 1.359375,-2.875 1.703125,-2.875 1.9375,-2.875 2.125,-2.75 2.125,-2.421875 2.125,-2.28125 2.03125,-1.9375 1.96875,-1.6875 Z m 0,0"
                 id="id-eaa8b864-9474-468d-8b9d-51f19f540038" />
            </g>
          </g>
          <g
             style="fill:#000000;fill-opacity:1"
             id="id-b4f40468-2e8e-4f3b-a1db-bdb81088df49">
            <g
               transform="translate(206.783,136.208)"
               id="g2862">
              <path
                 style="stroke:none"
                 d="m 0.96875,-0.484375 c -0.03125,0.125 -0.078125,0.34375 -0.078125,0.359375 0,0.109375 0.09375,0.1875 0.1875,0.1875 0.0625,0 0.171875,-0.046875 0.234375,-0.171875 0,-0.03125 0.0625,-0.265625 0.09375,-0.390625 0.171875,-0.671875 0.171875,-0.6875 0.171875,-0.703125 0.078125,-0.125 0.4375,-0.828125 1.03125,-0.828125 0.25,0 0.359375,0.125 0.359375,0.359375 0,0.28125 -0.21875,0.796875 -0.328125,1.078125 -0.03125,0.0625 -0.046875,0.125 -0.046875,0.203125 0,0.265625 0.25,0.453125 0.546875,0.453125 0.53125,0 0.796875,-0.65625 0.796875,-0.78125 0,-0.0625 -0.078125,-0.0625 -0.09375,-0.0625 -0.09375,0 -0.09375,0.015625 -0.125,0.109375 C 3.625,-0.375 3.390625,-0.109375 3.15625,-0.109375 3.046875,-0.109375 3,-0.1875 3,-0.296875 3,-0.40625 3.03125,-0.453125 3.078125,-0.5625 c 0.078125,-0.203125 0.3125,-0.765625 0.3125,-1.046875 0,-0.375 -0.265625,-0.59375 -0.75,-0.59375 -0.453125,0 -0.765625,0.28125 -0.9375,0.5 -0.015625,-0.421875 -0.421875,-0.5 -0.609375,-0.5 -0.5,0 -0.640625,0.765625 -0.640625,0.765625 0,0.078125 0.078125,0.078125 0.109375,0.078125 0.078125,0 0.09375,-0.03125 0.109375,-0.09375 C 0.75,-1.75 0.859375,-2.03125 1.078125,-2.03125 c 0.15625,0 0.203125,0.15625 0.203125,0.265625 0,0.0625 -0.0625,0.25 -0.078125,0.390625 -0.046875,0.125 -0.09375,0.328125 -0.109375,0.4375 z m 0,0"
                 id="id-49b26654-84fb-4fe7-b82d-aa77b52161ec" />
            </g>
          </g>
        </g>
      </g>
      <g
         id="g3761"
         inkscape:label="hill1base"
         transform="matrix(1.3333333,0,0,-1.3333333,0.36857561,509.68009)">
        <g
           id="g3763" />
        <g
           id="g3765" />
        <g
           id="g3767" />
        <g
           id="g3769" />
        <g
           id="g3771" />
        <g
           id="g3773" />
        <g
           id="g3775" />
        <g
           id="g3777" />
        <g
           id="g3779" />
        <g
           id="g3781">
          <g
             id="g3783"
             clip-path="url(#clipPath3787)" />
        </g>
        <g
           id="g3789" />
        <g
           id="g3791">
          <g
             id="g3793"
             clip-path="url(#clipPath3797)">
            <path
               d="M 40.91,136.98 H 519.86"
               style="fill:none;stroke:#ebebeb;stroke-width:0.53;stroke-linecap:butt;stroke-linejoin:round;stroke-miterlimit:10;stroke-dasharray:none;stroke-opacity:1"
               id="path3799" />
            <path
               d="M 40.91,286.53 H 519.86"
               style="fill:none;stroke:#ebebeb;stroke-width:0.53;stroke-linecap:butt;stroke-linejoin:round;stroke-miterlimit:10;stroke-dasharray:none;stroke-opacity:1"
               id="path3801" />
            <path
               d="M 171.53,47.25 V 376.27"
               style="fill:none;stroke:#ebebeb;stroke-width:0.53;stroke-linecap:butt;stroke-linejoin:round;stroke-miterlimit:10;stroke-dasharray:none;stroke-opacity:1"
               id="path3803" />
            <path
               d="M 389.24,47.25 V 376.27"
               style="fill:none;stroke:#ebebeb;stroke-width:0.53;stroke-linecap:butt;stroke-linejoin:round;stroke-miterlimit:10;stroke-dasharray:none;stroke-opacity:1"
               id="path3805" />
            <path
               d="M 40.91,62.2 H 519.86"
               style="fill:none;stroke:#ebebeb;stroke-width:1.07;stroke-linecap:butt;stroke-linejoin:round;stroke-miterlimit:10;stroke-dasharray:none;stroke-opacity:1"
               id="path3807" />
            <path
               d="M 40.91,211.75 H 519.86"
               style="fill:none;stroke:#ebebeb;stroke-width:1.07;stroke-linecap:butt;stroke-linejoin:round;stroke-miterlimit:10;stroke-dasharray:none;stroke-opacity:1"
               id="path3809" />
            <path
               d="M 40.91,361.31 H 519.86"
               style="fill:none;stroke:#ebebeb;stroke-width:1.07;stroke-linecap:butt;stroke-linejoin:round;stroke-miterlimit:10;stroke-dasharray:none;stroke-opacity:1"
               id="path3811" />
            <path
               d="M 62.68,47.25 V 376.27"
               style="fill:none;stroke:#ebebeb;stroke-width:1.07;stroke-linecap:butt;stroke-linejoin:round;stroke-miterlimit:10;stroke-dasharray:none;stroke-opacity:1"
               id="path3813" />
            <path
               d="M 280.38,47.25 V 376.27"
               style="fill:none;stroke:#ebebeb;stroke-width:1.07;stroke-linecap:butt;stroke-linejoin:round;stroke-miterlimit:10;stroke-dasharray:none;stroke-opacity:1"
               id="path3815" />
            <path
               d="M 498.09,47.25 V 376.27"
               style="fill:none;stroke:#ebebeb;stroke-width:1.07;stroke-linecap:butt;stroke-linejoin:round;stroke-miterlimit:10;stroke-dasharray:none;stroke-opacity:1"
               id="path3817" />
            <path
               d="m 62.68,361.31 4.35,-0.11 4.36,-0.36 4.35,-0.6 4.35,-0.83 4.36,-1.06 4.35,-1.28 4.36,-1.51 4.35,-1.71 4.35,-1.92 4.36,-2.12 4.35,-2.3 4.36,-2.49 4.35,-2.65 4.36,-2.8 4.35,-2.95 4.35,-3.09 4.36,-3.21 4.35,-3.32 4.36,-3.43 4.35,-3.51 4.35,-3.6 4.36,-3.66 4.35,-3.73 4.36,-3.77 4.35,-3.81 4.35,-3.84 4.36,-3.87 4.35,-3.88 4.36,-3.88 4.35,-3.88 4.36,-3.88 4.35,-3.86 4.35,-3.85 4.36,-3.81 4.35,-3.79 4.36,-3.76 4.35,-3.72 4.35,-3.67 4.36,-3.63 4.35,-3.58 4.36,-3.54 4.35,-3.48 4.35,-3.43 4.36,-3.37 4.35,-3.32 4.36,-3.25 4.35,-3.2 4.36,-3.14 4.35,-3.08 4.35,-3.03 4.36,-2.96 4.35,-2.9 4.36,-2.84 4.35,-2.78 4.35,-2.73 4.36,-2.66 4.35,-2.61 4.36,-2.55 4.35,-2.5 4.35,-2.43 4.36,-2.39 4.35,-2.33 4.36,-2.28 4.35,-2.22 4.36,-2.18 4.35,-2.12 4.35,-2.08 4.36,-2.03 4.35,-1.98 4.36,-1.93 4.35,-1.89 4.35,-1.85 4.36,-1.8 4.35,-1.76 4.36,-1.72 4.35,-1.68 4.35,-1.64 4.36,-1.6 4.35,-1.56 4.36,-1.53 4.35,-1.5 4.36,-1.45 4.35,-1.43 4.35,-1.39 4.36,-1.36 4.35,-1.33 4.36,-1.3 4.35,-1.27 4.35,-1.24 4.36,-1.21 4.35,-1.18 4.36,-1.16 4.35,-1.13 4.35,-1.11 4.36,-1.08 4.35,-1.06 4.36,-1.03 4.35,-1.01 4.36,-0.99 4.35,-0.97"
               style="fill:none;stroke:#01ff00;stroke-width:1.07;stroke-linecap:butt;stroke-linejoin:round;stroke-miterlimit:10;stroke-dasharray:none;stroke-opacity:1"
               id="path3819" />
            <path
               d="m 62.68,361.31 h 4.35 4.36 4.35 4.35 4.36 4.35 l 4.36,-0.01 4.35,-0.02 4.35,-0.02 4.36,-0.04 4.35,-0.06 4.36,-0.08 4.35,-0.12 4.36,-0.16 4.35,-0.21 4.35,-0.28 4.36,-0.35 4.35,-0.44 4.36,-0.56 4.35,-0.68 4.35,-0.82 4.36,-1 4.35,-1.18 4.36,-1.4 4.35,-1.63 4.35,-1.89 4.36,-2.18 4.35,-2.48 4.36,-2.81 4.35,-3.16 4.36,-3.52 4.35,-3.9 4.35,-4.29 4.36,-4.67 4.35,-5.07 4.36,-5.46 4.35,-5.83 4.35,-6.18 4.36,-6.51 4.35,-6.81 4.36,-7.08 4.35,-7.3 4.35,-7.49 4.36,-7.63 4.35,-7.73 4.36,-7.77 4.35,-7.78 4.36,-7.74 4.35,-7.67 4.35,-7.55 4.36,-7.39 4.35,-7.22 4.36,-7.02 4.35,-6.79 4.35,-6.55 4.36,-6.3 4.35,-6.04 4.36,-5.77 4.35,-5.5 4.35,-5.23 4.36,-4.96 4.35,-4.7 4.36,-4.45 4.35,-4.2 4.36,-3.97 4.35,-3.73 4.35,-3.51 4.36,-3.31 4.35,-3.1 4.36,-2.92 4.35,-2.73 4.35,-2.57 4.36,-2.41 4.35,-2.26 4.36,-2.12 4.35,-1.98 4.35,-1.87 4.36,-1.74 4.35,-1.64 4.36,-1.53 4.35,-1.44 4.36,-1.35 4.35,-1.27 4.35,-1.19 4.36,-1.11 4.35,-1.05 4.36,-0.99 4.35,-0.92 4.35,-0.87 4.36,-0.82 4.35,-0.77 4.36,-0.72 4.35,-0.69 4.35,-0.64 4.36,-0.6 4.35,-0.57 4.36,-0.54 4.35,-0.51 4.36,-0.48 4.35,-0.45"
               style="fill:none;stroke:#0000ff;stroke-width:1.07;stroke-linecap:butt;stroke-linejoin:round;stroke-miterlimit:10;stroke-dasharray:none;stroke-opacity:1"
               id="path3821" />
            <path
               d="m 62.68,361.31 h 4.35 4.36 4.35 4.35 4.36 4.35 4.36 4.35 4.35 4.36 4.35 4.36 4.35 4.36 4.35 4.35 4.36 l 4.35,-0.01 h 4.36 l 4.35,-0.02 4.35,-0.02 4.36,-0.03 4.35,-0.04 4.36,-0.07 4.35,-0.1 4.35,-0.14 4.36,-0.19 4.35,-0.28 4.36,-0.38 4.35,-0.51 4.36,-0.69 4.35,-0.92 4.35,-1.21 4.36,-1.58 4.35,-2.02 4.36,-2.58 4.35,-3.24 4.35,-4.03 4.36,-4.95 4.35,-5.99 4.36,-7.14 4.35,-8.38 4.35,-9.68 4.36,-10.95 4.35,-12.18 4.36,-13.25 4.35,-14.13 4.36,-14.74 4.35,-15.05 4.35,-15.06 4.36,-14.76 4.35,-14.19 4.36,-13.43 4.35,-12.48 4.35,-11.46 4.36,-10.38 4.35,-9.31 4.36,-8.27 4.35,-7.29 4.35,-6.39 4.36,-5.58 4.35,-4.84 4.36,-4.19 4.35,-3.63 4.36,-3.12 4.35,-2.7 4.35,-2.32 4.36,-2.01 4.35,-1.72 4.36,-1.49 4.35,-1.28 4.35,-1.11 4.36,-0.96 4.35,-0.83 4.36,-0.72 4.35,-0.62 4.35,-0.54 4.36,-0.47 4.35,-0.41 4.36,-0.36 4.35,-0.31 4.36,-0.27 4.35,-0.24 4.35,-0.21 4.36,-0.19 4.35,-0.16 4.36,-0.14 4.35,-0.13 4.35,-0.11 4.36,-0.1 4.35,-0.09 4.36,-0.07 4.35,-0.07 4.35,-0.06 4.36,-0.06 4.35,-0.05 4.36,-0.04 4.35,-0.04 4.36,-0.03 4.35,-0.03"
               style="fill:none;stroke:#ff0000;stroke-width:1.07;stroke-linecap:butt;stroke-linejoin:round;stroke-miterlimit:10;stroke-dasharray:none;stroke-opacity:1"
               id="path3823" />
            <path
               d="m 62.68,361.31 h 4.35 4.36 4.35 4.35 4.36 4.35 4.36 4.35 4.35 4.36 4.35 4.36 4.35 4.36 4.35 4.35 4.36 4.35 4.36 4.35 4.35 4.36 4.35 4.36 4.35 l 4.35,-0.01 4.36,-0.01 4.35,-0.03 4.36,-0.03 4.35,-0.06 4.36,-0.09 4.35,-0.14 4.35,-0.21 4.36,-0.33 4.35,-0.5 4.36,-0.74 4.35,-1.08 4.35,-1.56 4.36,-2.23 4.35,-3.14 4.36,-4.34 4.35,-5.88 4.35,-7.82 4.36,-10.12 4.35,-12.75 4.36,-15.5 4.35,-18.17 4.36,-20.4 4.35,-21.93 4.35,-22.49 4.36,-22.05 4.35,-20.71 4.36,-18.73 4.35,-16.37 4.35,-13.92 4.36,-11.57 4.35,-9.45 4.36,-7.62 4.35,-6.08 4.35,-4.82 4.36,-3.81 4.35,-3.01 4.36,-2.36 4.35,-1.86 4.36,-1.46 4.35,-1.16 4.35,-0.91 4.36,-0.72 4.35,-0.58 4.36,-0.45 4.35,-0.37 4.35,-0.29 4.36,-0.23 4.35,-0.19 4.36,-0.15 4.35,-0.13 4.35,-0.1 4.36,-0.08 4.35,-0.06 4.36,-0.06 4.35,-0.04 4.36,-0.04 4.35,-0.03 4.35,-0.02 4.36,-0.02 4.35,-0.02 4.36,-0.01 4.35,-0.01 4.35,-0.01 4.36,-0.01 4.35,-0.01 h 4.36 l 4.35,-0.01 h 4.35 l 4.36,-0.01 h 4.35 4.36 4.35 4.36 l 4.35,-0.01"
               style="fill:none;stroke:#000000;stroke-width:1.07;stroke-linecap:butt;stroke-linejoin:round;stroke-miterlimit:10;stroke-dasharray:none;stroke-opacity:1"
               id="path3825" />
            <path
               d="M 40.91,361.31 H 519.86"
               style="fill:none;stroke:#ffa500;stroke-width:1.07;stroke-linecap:butt;stroke-linejoin:round;stroke-miterlimit:10;stroke-dasharray:4.27, 4.27;stroke-dashoffset:0;stroke-opacity:1"
               id="path3827" />
            <path
               d="M 280.38,47.25 V 376.27"
               style="fill:none;stroke:#ffa500;stroke-width:1.07;stroke-linecap:butt;stroke-linejoin:round;stroke-miterlimit:10;stroke-dasharray:4.27, 4.27;stroke-dashoffset:0;stroke-opacity:1"
               id="path3829" />
          </g>
        </g>
        <g
           id="g3831" />
        <g
           id="g3833" />
        <g
           id="g3835" />
        <g
           id="g3837" />
        <g
           id="g3839" />
        <g
           id="g3841" />
        <g
           id="g3843" />
        <g
           id="g3845" />
        <g
           id="g3847" />
        <g
           id="g3849" />
        <g
           id="g3851" />
        <g
           id="g3853" />
        <g
           id="g3855" />
        <g
           id="g3857" />
        <g
           id="g3859" />
        <g
           id="g3861">
          <text
             transform="matrix(1,0,0,-1,27.08,355.57)"
             style="font-variant:normal;font-weight:normal;font-size:16px;font-family:Helvetica;-inkscape-font-specification:Helvetica;writing-mode:lr-tb;fill:#4d4d4d;fill-opacity:1;fill-rule:nonzero;stroke:none"
             id="text3865"><tspan
               x="0"
               y="0"
               id="tspan3863">b</tspan></text>
        </g>
        <g
           id="g3867" />
        <g
           id="g3869" />
        <g
           id="g3871" />
        <g
           id="g3873" />
        <g
           id="g3875" />
        <g
           id="g3877" />
        <g
           id="g3879" />
        <g
           id="g3881" />
        <g
           id="g3883" />
        <g
           id="g3885" />
        <g
           id="g3887" />
        <g
           id="g3889" />
        <g
           id="g3891" />
        <g
           id="g3893">
          <text
             transform="matrix(1,0,0,-1,276.38,30.83)"
             style="font-variant:normal;font-weight:normal;font-size:16px;font-family:Helvetica;-inkscape-font-specification:Helvetica;writing-mode:lr-tb;fill:#4d4d4d;fill-opacity:1;fill-rule:nonzero;stroke:none"
             id="text3897"><tspan
               x="0"
               y="0"
               id="tspan3895">k</tspan></text>
        </g>
        <g
           id="g3899" />
        <g
           id="g3901" />
        <g
           id="g3903" />
        <g
           id="g3905" />
        <g
           id="g3907" />
        <g
           id="g3909">
          <text
             transform="matrix(1,0,0,-1,275.38,9.98)"
             style="font-variant:normal;font-weight:normal;font-size:20px;font-family:Helvetica;-inkscape-font-specification:Helvetica;writing-mode:lr-tb;fill:#000000;fill-opacity:1;fill-rule:nonzero;stroke:none"
             id="text3913"><tspan
               x="0"
               y="0"
               id="tspan3911">x</tspan></text>
        </g>
        <g
           id="g3915" />
        <g
           id="g3917">
          <text
             transform="matrix(0,1,1,0,19.84,197.32)"
             style="font-variant:normal;font-weight:normal;font-size:20px;font-family:Helvetica;-inkscape-font-specification:Helvetica;writing-mode:lr-tb;fill:#000000;fill-opacity:1;fill-rule:nonzero;stroke:none"
             id="text3921"><tspan
               x="0 5.5599999 12.22 22.219999"
               y="0"
               sodipodi:role="line"
               id="tspan3919">f(x)</tspan></text>
        </g>
        <g
           id="g3923" />
        <g
           id="g3925" />
        <g
           id="g3927" />
        <g
           id="g3929" />
        <g
           id="g3931" />
        <g
           id="g3933" />
        <g
           id="g3935" />
        <g
           id="g3937" />
        <g
           id="g3939" />
        <g
           id="g3941" />
        <g
           id="g3943" />
        <g
           id="g3945">
          <text
             transform="matrix(1,0,0,-1,536.3,244.12)"
             style="font-variant:normal;font-weight:normal;font-size:20px;font-family:Helvetica;-inkscape-font-specification:Helvetica;writing-mode:lr-tb;fill:#000000;fill-opacity:1;fill-rule:nonzero;stroke:none"
             id="text3949"><tspan
               x="0"
               y="0"
               id="tspan3947">n</tspan></text>
        </g>
        <g
           id="g3951" />
        <g
           id="g3953" />
        <g
           id="g3955" />
        <g
           id="g3957" />
        <g
           id="g3959">
          <path
             d="m 538.03,222.95 h 13.82"
             style="fill:none;stroke:#01ff00;stroke-width:1.07;stroke-linecap:butt;stroke-linejoin:round;stroke-miterlimit:10;stroke-dasharray:none;stroke-opacity:1"
             id="path3961" />
        </g>
        <g
           id="g3963" />
        <g
           id="g3965">
          <path
             d="m 538.03,222.95 h 13.82"
             style="fill:none;stroke:#01ff00;stroke-width:1.07;stroke-linecap:butt;stroke-linejoin:round;stroke-miterlimit:10;stroke-dasharray:none;stroke-opacity:1"
             id="path3967" />
        </g>
        <g
           id="g3969" />
        <g
           id="g3971">
          <path
             d="m 538.03,222.95 h 13.82"
             style="fill:none;stroke:#01ff00;stroke-width:1.07;stroke-linecap:butt;stroke-linejoin:round;stroke-miterlimit:10;stroke-dasharray:none;stroke-opacity:1"
             id="path3973" />
        </g>
        <g
           id="g3975" />
        <g
           id="g3977">
          <path
             d="m 538.03,222.95 h 13.82"
             style="fill:none;stroke:#01ff00;stroke-width:1.07;stroke-linecap:butt;stroke-linejoin:round;stroke-miterlimit:10;stroke-dasharray:none;stroke-opacity:1"
             id="path3979" />
        </g>
        <g
           id="g3981" />
        <g
           id="g3983" />
        <g
           id="g3985" />
        <g
           id="g3987">
          <path
             d="m 538.03,205.67 h 13.82"
             style="fill:none;stroke:#0000ff;stroke-width:1.07;stroke-linecap:butt;stroke-linejoin:round;stroke-miterlimit:10;stroke-dasharray:none;stroke-opacity:1"
             id="path3989" />
        </g>
        <g
           id="g3991" />
        <g
           id="g3993">
          <path
             d="m 538.03,205.67 h 13.82"
             style="fill:none;stroke:#0000ff;stroke-width:1.07;stroke-linecap:butt;stroke-linejoin:round;stroke-miterlimit:10;stroke-dasharray:none;stroke-opacity:1"
             id="path3995" />
        </g>
        <g
           id="g3997" />
        <g
           id="g3999">
          <path
             d="m 538.03,205.67 h 13.82"
             style="fill:none;stroke:#0000ff;stroke-width:1.07;stroke-linecap:butt;stroke-linejoin:round;stroke-miterlimit:10;stroke-dasharray:none;stroke-opacity:1"
             id="path4001" />
        </g>
        <g
           id="g4003" />
        <g
           id="g4005">
          <path
             d="m 538.03,205.67 h 13.82"
             style="fill:none;stroke:#0000ff;stroke-width:1.07;stroke-linecap:butt;stroke-linejoin:round;stroke-miterlimit:10;stroke-dasharray:none;stroke-opacity:1"
             id="path4007" />
        </g>
        <g
           id="g4009" />
        <g
           id="g4011" />
        <g
           id="g4013" />
        <g
           id="g4015">
          <path
             d="m 538.03,188.39 h 13.82"
             style="fill:none;stroke:#ff0000;stroke-width:1.07;stroke-linecap:butt;stroke-linejoin:round;stroke-miterlimit:10;stroke-dasharray:none;stroke-opacity:1"
             id="path4017" />
        </g>
        <g
           id="g4019" />
        <g
           id="g4021">
          <path
             d="m 538.03,188.39 h 13.82"
             style="fill:none;stroke:#ff0000;stroke-width:1.07;stroke-linecap:butt;stroke-linejoin:round;stroke-miterlimit:10;stroke-dasharray:none;stroke-opacity:1"
             id="path4023" />
        </g>
        <g
           id="g4025" />
        <g
           id="g4027">
          <path
             d="m 538.03,188.39 h 13.82"
             style="fill:none;stroke:#ff0000;stroke-width:1.07;stroke-linecap:butt;stroke-linejoin:round;stroke-miterlimit:10;stroke-dasharray:none;stroke-opacity:1"
             id="path4029" />
        </g>
        <g
           id="g4031" />
        <g
           id="g4033">
          <path
             d="m 538.03,188.39 h 13.82"
             style="fill:none;stroke:#ff0000;stroke-width:1.07;stroke-linecap:butt;stroke-linejoin:round;stroke-miterlimit:10;stroke-dasharray:none;stroke-opacity:1"
             id="path4035" />
        </g>
        <g
           id="g4037" />
        <g
           id="g4039" />
        <g
           id="g4041" />
        <g
           id="g4043">
          <path
             d="m 538.03,171.11 h 13.82"
             style="fill:none;stroke:#000000;stroke-width:1.07;stroke-linecap:butt;stroke-linejoin:round;stroke-miterlimit:10;stroke-dasharray:none;stroke-opacity:1"
             id="path4045" />
        </g>
        <g
           id="g4047" />
        <g
           id="g4049">
          <path
             d="m 538.03,171.11 h 13.82"
             style="fill:none;stroke:#000000;stroke-width:1.07;stroke-linecap:butt;stroke-linejoin:round;stroke-miterlimit:10;stroke-dasharray:none;stroke-opacity:1"
             id="path4051" />
        </g>
        <g
           id="g4053" />
        <g
           id="g4055">
          <path
             d="m 538.03,171.11 h 13.82"
             style="fill:none;stroke:#000000;stroke-width:1.07;stroke-linecap:butt;stroke-linejoin:round;stroke-miterlimit:10;stroke-dasharray:none;stroke-opacity:1"
             id="path4057" />
        </g>
        <g
           id="g4059" />
        <g
           id="g4061">
          <path
             d="m 538.03,171.11 h 13.82"
             style="fill:none;stroke:#000000;stroke-width:1.07;stroke-linecap:butt;stroke-linejoin:round;stroke-miterlimit:10;stroke-dasharray:none;stroke-opacity:1"
             id="path4063" />
        </g>
        <g
           id="g4065" />
        <g
           id="g4067" />
        <g
           id="g4069" />
        <g
           id="g4071">
          <text
             transform="matrix(1,0,0,-1,563.54,217.2)"
             style="font-variant:normal;font-weight:normal;font-size:16px;font-family:Helvetica;-inkscape-font-specification:Helvetica;writing-mode:lr-tb;fill:#000000;fill-opacity:1;fill-rule:nonzero;stroke:none"
             id="text4075"><tspan
               x="0"
               y="0"
               id="tspan4073">2</tspan></text>
        </g>
        <g
           id="g4077" />
        <g
           id="g4079" />
        <g
           id="g4081" />
        <g
           id="g4083" />
        <g
           id="g4085">
          <text
             transform="matrix(1,0,0,-1,563.54,199.92)"
             style="font-variant:normal;font-weight:normal;font-size:16px;font-family:Helvetica;-inkscape-font-specification:Helvetica;writing-mode:lr-tb;fill:#000000;fill-opacity:1;fill-rule:nonzero;stroke:none"
             id="text4089"><tspan
               x="0"
               y="0"
               id="tspan4087">5</tspan></text>
        </g>
        <g
           id="g4091" />
        <g
           id="g4093" />
        <g
           id="g4095" />
        <g
           id="g4097" />
        <g
           id="g4099">
          <text
             transform="matrix(1,0,0,-1,563.54,182.64)"
             style="font-variant:normal;font-weight:normal;font-size:16px;font-family:Helvetica;-inkscape-font-specification:Helvetica;writing-mode:lr-tb;fill:#000000;fill-opacity:1;fill-rule:nonzero;stroke:none"
             id="text4103"><tspan
               x="0 8.8959999"
               y="0"
               sodipodi:role="line"
               id="tspan4101">10</tspan></text>
        </g>
        <g
           id="g4105" />
        <g
           id="g4107" />
        <g
           id="g4109" />
        <g
           id="g4111" />
        <g
           id="g4113">
          <text
             transform="matrix(1,0,0,-1,563.54,165.36)"
             style="font-variant:normal;font-weight:normal;font-size:16px;font-family:Helvetica;-inkscape-font-specification:Helvetica;writing-mode:lr-tb;fill:#000000;fill-opacity:1;fill-rule:nonzero;stroke:none"
             id="text4117"><tspan
               x="0 8.8959999"
               y="0"
               sodipodi:role="line"
               id="tspan4115">15</tspan></text>
        </g>
        <g
           id="g4119" />
        <g
           id="g4121" />
        <g
           id="g4123" />
        <g
           id="g4125" />
        <g
           id="g4127" />
        <g
           id="g4129" />
        <g
           id="g4131" />
        <g
           id="g4133" />
        <g
           id="g4135" />
        <g
           id="g4137" />
        <g
           id="g4139" />
        <g
           id="g4141" />
        <g
           id="g4143" />
      </g>
    </g>
  </g>
</svg>
