<?xml version="1.0" encoding="UTF-8" standalone="no"?>
<svg
   xmlns:ns9="http://www.iki.fi/pav/software/textext/"
   xmlns:dc="http://purl.org/dc/elements/1.1/"
   xmlns:cc="http://creativecommons.org/ns#"
   xmlns:rdf="http://www.w3.org/1999/02/22-rdf-syntax-ns#"
   xmlns:svg="http://www.w3.org/2000/svg"
   xmlns="http://www.w3.org/2000/svg"
   xmlns:sodipodi="http://sodipodi.sourceforge.net/DTD/sodipodi-0.dtd"
   xmlns:inkscape="http://www.inkscape.org/namespaces/inkscape"
   version="1.1"
   id="svg2"
   width="790"
   height="509"
   viewBox="0 0 790 509"
   sodipodi:docname="h2.svg"
   inkscape:version="1.0.2 (1.0.2+r75+1)">
  <metadata
     id="metadata8">
    <rdf:RDF>
      <cc:Work
         rdf:about="">
        <dc:format>image/svg+xml</dc:format>
        <dc:type
           rdf:resource="http://purl.org/dc/dcmitype/StillImage" />
        <dc:title />
      </cc:Work>
    </rdf:RDF>
  </metadata>
  <defs
     id="defs6">
    <clipPath
       clipPathUnits="userSpaceOnUse"
       id="clipPath1216">
      <path
         d="M 0,0 H 592.5 V 381.75 H 0 Z"
         id="path1214" />
    </clipPath>
    <clipPath
       clipPathUnits="userSpaceOnUse"
       id="clipPath1226">
      <path
         d="M 40.91,47.25 H 519.86 V 376.27 H 40.91 Z"
         id="path1224" />
    </clipPath>
  </defs>
  <sodipodi:namedview
     pagecolor="#ffffff"
     bordercolor="#666666"
     borderopacity="1"
     objecttolerance="10"
     gridtolerance="10"
     guidetolerance="10"
     inkscape:pageopacity="0"
     inkscape:pageshadow="2"
     inkscape:window-width="1920"
     inkscape:window-height="1016"
     id="namedview4"
     showgrid="false"
     inkscape:zoom="1.161997"
     inkscape:cx="422.4213"
     inkscape:cy="231.24632"
     inkscape:window-x="0"
     inkscape:window-y="27"
     inkscape:window-maximized="1"
     inkscape:current-layer="g10"
     inkscape:document-rotation="0" />
  <g
     inkscape:groupmode="layer"
     inkscape:label="Image"
     id="g10">
    <g
       id="g2441"
       inkscape:export-xdpi="98.845421"
       inkscape:export-ydpi="98.845421">
      <g
         id="g1190"
         inkscape:label="hill2base"
         transform="matrix(1.3333333,0,0,-1.3333333,0,508.99999)">
        <g
           id="g1192" />
        <g
           id="g1194" />
        <g
           id="g1196" />
        <g
           id="g1198" />
        <g
           id="g1200" />
        <g
           id="g1202" />
        <g
           id="g1204" />
        <g
           id="g1206" />
        <g
           id="g1208" />
        <g
           id="g1210">
          <g
             id="g1212"
             clip-path="url(#clipPath1216)" />
        </g>
        <g
           id="g1218" />
        <g
           id="g1220">
          <g
             id="g1222"
             clip-path="url(#clipPath1226)">
            <path
               d="M 40.91,136.98 H 519.86"
               style="fill:none;stroke:#ebebeb;stroke-width:0.53;stroke-linecap:butt;stroke-linejoin:round;stroke-miterlimit:10;stroke-dasharray:none;stroke-opacity:1"
               id="path1228" />
            <path
               d="M 40.91,286.54 H 519.86"
               style="fill:none;stroke:#ebebeb;stroke-width:0.53;stroke-linecap:butt;stroke-linejoin:round;stroke-miterlimit:10;stroke-dasharray:none;stroke-opacity:1"
               id="path1230" />
            <path
               d="M 171.53,47.25 V 376.27"
               style="fill:none;stroke:#ebebeb;stroke-width:0.53;stroke-linecap:butt;stroke-linejoin:round;stroke-miterlimit:10;stroke-dasharray:none;stroke-opacity:1"
               id="path1232" />
            <path
               d="M 389.24,47.25 V 376.27"
               style="fill:none;stroke:#ebebeb;stroke-width:0.53;stroke-linecap:butt;stroke-linejoin:round;stroke-miterlimit:10;stroke-dasharray:none;stroke-opacity:1"
               id="path1234" />
            <path
               d="M 40.91,62.2 H 519.86"
               style="fill:none;stroke:#ebebeb;stroke-width:1.07;stroke-linecap:butt;stroke-linejoin:round;stroke-miterlimit:10;stroke-dasharray:none;stroke-opacity:1"
               id="path1236" />
            <path
               d="M 40.91,211.76 H 519.86"
               style="fill:none;stroke:#ebebeb;stroke-width:1.07;stroke-linecap:butt;stroke-linejoin:round;stroke-miterlimit:10;stroke-dasharray:none;stroke-opacity:1"
               id="path1238" />
            <path
               d="M 40.91,361.31 H 519.86"
               style="fill:none;stroke:#ebebeb;stroke-width:1.07;stroke-linecap:butt;stroke-linejoin:round;stroke-miterlimit:10;stroke-dasharray:none;stroke-opacity:1"
               id="path1240" />
            <path
               d="M 62.68,47.25 V 376.27"
               style="fill:none;stroke:#ebebeb;stroke-width:1.07;stroke-linecap:butt;stroke-linejoin:round;stroke-miterlimit:10;stroke-dasharray:none;stroke-opacity:1"
               id="path1242" />
            <path
               d="M 280.38,47.25 V 376.27"
               style="fill:none;stroke:#ebebeb;stroke-width:1.07;stroke-linecap:butt;stroke-linejoin:round;stroke-miterlimit:10;stroke-dasharray:none;stroke-opacity:1"
               id="path1244" />
            <path
               d="M 498.09,47.25 V 376.27"
               style="fill:none;stroke:#ebebeb;stroke-width:1.07;stroke-linecap:butt;stroke-linejoin:round;stroke-miterlimit:10;stroke-dasharray:none;stroke-opacity:1"
               id="path1246" />
            <path
               d="m 62.68,62.2 4.35,0.12 4.36,0.36 4.35,0.6 4.35,0.83 4.36,1.06 4.35,1.28 4.36,1.5 4.35,1.72 4.35,1.92 4.36,2.12 4.35,2.3 4.36,2.48 4.35,2.65 4.36,2.81 4.35,2.95 4.35,3.09 4.36,3.21 4.35,3.32 4.36,3.43 4.35,3.51 4.35,3.6 4.36,3.66 4.35,3.72 4.36,3.77 4.35,3.82 4.35,3.84 4.36,3.86 4.35,3.88 4.36,3.89 4.35,3.88 4.36,3.88 4.35,3.86 4.35,3.84 4.36,3.82 4.35,3.79 4.36,3.75 4.35,3.72 4.35,3.68 4.36,3.63 4.35,3.58 4.36,3.53 4.35,3.49 4.35,3.42 4.36,3.37 4.35,3.32 4.36,3.26 4.35,3.2 4.36,3.14 4.35,3.08 4.35,3.02 4.36,2.96 4.35,2.9 4.36,2.84 4.35,2.79 4.35,2.72 4.36,2.67 4.35,2.6 4.36,2.55 4.35,2.5 4.35,2.44 4.36,2.38 4.35,2.33 4.36,2.28 4.35,2.23 4.36,2.17 4.35,2.13 4.35,2.07 4.36,2.03 4.35,1.98 4.36,1.93 4.35,1.89 4.35,1.85 4.36,1.8 4.35,1.76 4.36,1.72 4.35,1.68 4.35,1.64 4.36,1.6 4.35,1.57 4.36,1.52 4.35,1.5 4.36,1.46 4.35,1.42 4.35,1.39 4.36,1.36 4.35,1.33 4.36,1.3 4.35,1.27 4.35,1.24 4.36,1.21 4.35,1.18 4.36,1.16 4.35,1.13 4.35,1.11 4.36,1.08 4.35,1.06 4.36,1.03 4.35,1.02 4.36,0.98 4.35,0.97"
               style="fill:none;stroke:#01ff00;stroke-width:1.07;stroke-linecap:butt;stroke-linejoin:round;stroke-miterlimit:10;stroke-dasharray:none;stroke-opacity:1"
               id="path1248" />
            <path
               d="m 62.68,62.2 h 4.35 4.36 4.35 l 4.35,0.01 h 4.36 4.35 l 4.36,0.01 4.35,0.02 4.35,0.02 4.36,0.04 4.35,0.06 4.36,0.08 4.35,0.12 4.36,0.16 4.35,0.21 4.35,0.27 4.36,0.36 4.35,0.44 4.36,0.56 4.35,0.68 4.35,0.82 4.36,1 4.35,1.18 4.36,1.4 4.35,1.63 4.35,1.89 4.36,2.18 4.35,2.48 4.36,2.81 4.35,3.15 4.36,3.53 4.35,3.9 4.35,4.28 4.36,4.68 4.35,5.07 4.36,5.46 4.35,5.82 4.35,6.18 4.36,6.52 4.35,6.81 4.36,7.07 4.35,7.31 4.35,7.49 4.36,7.63 4.35,7.72 4.36,7.78 4.35,7.78 4.36,7.74 4.35,7.66 4.35,7.55 4.36,7.4 4.35,7.22 4.36,7.01 4.35,6.79 4.35,6.56 4.36,6.29 4.35,6.04 4.36,5.77 4.35,5.5 4.35,5.23 4.36,4.96 4.35,4.71 4.36,4.45 4.35,4.2 4.36,3.96 4.35,3.73 4.35,3.52 4.36,3.3 4.35,3.1 4.36,2.92 4.35,2.74 4.35,2.56 4.36,2.41 4.35,2.26 4.36,2.12 4.35,1.98 4.35,1.87 4.36,1.74 4.35,1.64 4.36,1.53 4.35,1.44 4.36,1.35 4.35,1.27 4.35,1.19 4.36,1.11 4.35,1.05 4.36,0.99 4.35,0.92 4.35,0.87 4.36,0.82 4.35,0.77 4.36,0.72 4.35,0.69 4.35,0.64 4.36,0.6 4.35,0.57 4.36,0.54 4.35,0.51 4.36,0.48 4.35,0.45"
               style="fill:none;stroke:#0000ff;stroke-width:1.07;stroke-linecap:butt;stroke-linejoin:round;stroke-miterlimit:10;stroke-dasharray:none;stroke-opacity:1"
               id="path1250" />
            <path
               d="m 62.68,62.2 h 4.35 4.36 4.35 4.35 4.36 4.35 4.36 4.35 4.35 4.36 4.35 4.36 4.35 l 4.36,0.01 h 4.35 4.35 4.36 l 4.35,0.01 h 4.36 l 4.35,0.02 4.35,0.02 4.36,0.03 4.35,0.04 4.36,0.07 4.35,0.1 4.35,0.14 4.36,0.19 4.35,0.28 4.36,0.38 4.35,0.51 4.36,0.69 4.35,0.92 4.35,1.21 4.36,1.58 4.35,2.02 4.36,2.58 4.35,3.24 4.35,4.03 4.36,4.95 4.35,5.99 4.36,7.14 4.35,8.38 4.35,9.67 4.36,10.96 4.35,12.17 4.36,13.26 4.35,14.12 4.36,14.74 4.35,15.05 4.35,15.06 4.36,14.76 4.35,14.2 4.36,13.42 4.35,12.49 4.35,11.45 4.36,10.38 4.35,9.31 4.36,8.27 4.35,7.29 4.35,6.39 4.36,5.58 4.35,4.84 4.36,4.19 4.35,3.63 4.36,3.13 4.35,2.69 4.35,2.33 4.36,2 4.35,1.72 4.36,1.49 4.35,1.28 4.35,1.11 4.36,0.96 4.35,0.83 4.36,0.72 4.35,0.62 4.35,0.54 4.36,0.47 4.35,0.41 4.36,0.36 4.35,0.31 4.36,0.27 4.35,0.24 4.35,0.21 4.36,0.19 4.35,0.16 4.36,0.14 4.35,0.13 4.35,0.11 4.36,0.1 4.35,0.09 4.36,0.07 4.35,0.07 4.35,0.06 4.36,0.06 4.35,0.05 4.36,0.04 4.35,0.04 4.36,0.03 4.35,0.03"
               style="fill:none;stroke:#ff0000;stroke-width:1.07;stroke-linecap:butt;stroke-linejoin:round;stroke-miterlimit:10;stroke-dasharray:none;stroke-opacity:1"
               id="path1252" />
            <path
               d="m 62.68,62.2 h 4.35 4.36 4.35 4.35 4.36 4.35 4.36 4.35 4.35 4.36 4.35 4.36 4.35 4.36 4.35 4.35 4.36 4.35 4.36 4.35 4.35 l 4.36,0.01 h 4.35 4.36 4.35 l 4.35,0.01 4.36,0.01 4.35,0.02 4.36,0.04 4.35,0.05 4.36,0.09 4.35,0.14 4.35,0.22 4.36,0.33 4.35,0.5 4.36,0.74 4.35,1.08 4.35,1.56 4.36,2.23 4.35,3.14 4.36,4.34 4.35,5.88 4.35,7.82 4.36,10.12 4.35,12.74 4.36,15.51 4.35,18.16 4.36,20.41 4.35,21.92 4.35,22.49 4.36,22.05 4.35,20.72 4.36,18.72 4.35,16.37 4.35,13.92 4.36,11.57 4.35,9.45 4.36,7.62 4.35,6.08 4.35,4.82 4.36,3.81 4.35,3.01 4.36,2.36 4.35,1.86 4.36,1.46 4.35,1.16 4.35,0.91 4.36,0.72 4.35,0.58 4.36,0.45 4.35,0.37 4.35,0.29 4.36,0.23 4.35,0.19 4.36,0.15 4.35,0.13 4.35,0.1 4.36,0.08 4.35,0.06 4.36,0.06 4.35,0.04 4.36,0.04 4.35,0.03 4.35,0.02 4.36,0.02 4.35,0.02 4.36,0.01 4.35,0.01 4.35,0.01 4.36,0.01 4.35,0.01 h 4.36 l 4.35,0.01 h 4.35 l 4.36,0.01 h 4.35 4.36 4.35 4.36 l 4.35,0.01"
               style="fill:none;stroke:#000000;stroke-width:1.07;stroke-linecap:butt;stroke-linejoin:round;stroke-miterlimit:10;stroke-dasharray:none;stroke-opacity:1"
               id="path1254" />
            <path
               d="M 40.91,361.31 H 519.86"
               style="fill:none;stroke:#ffa500;stroke-width:1.07;stroke-linecap:butt;stroke-linejoin:round;stroke-miterlimit:10;stroke-dasharray:4.27, 4.27;stroke-dashoffset:0;stroke-opacity:1"
               id="path1256" />
            <path
               d="M 280.38,47.25 V 376.27"
               style="fill:none;stroke:#ffa500;stroke-width:1.07;stroke-linecap:butt;stroke-linejoin:round;stroke-miterlimit:10;stroke-dasharray:4.27, 4.27;stroke-dashoffset:0;stroke-opacity:1"
               id="path1258" />
          </g>
        </g>
        <g
           id="g1260" />
        <g
           id="g1262" />
        <g
           id="g1264" />
        <g
           id="g1266" />
        <g
           id="g1268" />
        <g
           id="g1270" />
        <g
           id="g1272" />
        <g
           id="g1274" />
        <g
           id="g1276" />
        <g
           id="g1278" />
        <g
           id="g1280" />
        <g
           id="g1282" />
        <g
           id="g1284" />
        <g
           id="g1286" />
        <g
           id="g1288" />
        <g
           id="g1290">
          <text
             transform="matrix(1,0,0,-1,27.08,355.57)"
             style="font-variant:normal;font-weight:normal;font-size:16px;font-family:Helvetica;-inkscape-font-specification:Helvetica;writing-mode:lr-tb;fill:#4d4d4d;fill-opacity:1;fill-rule:nonzero;stroke:none"
             id="text1294"><tspan
               x="0"
               y="0"
               id="tspan1292">b</tspan></text>
        </g>
        <g
           id="g1296" />
        <g
           id="g1298" />
        <g
           id="g1300" />
        <g
           id="g1302" />
        <g
           id="g1304" />
        <g
           id="g1306" />
        <g
           id="g1308" />
        <g
           id="g1310" />
        <g
           id="g1312" />
        <g
           id="g1314" />
        <g
           id="g1316" />
        <g
           id="g1318" />
        <g
           id="g1320" />
        <g
           id="g1322">
          <text
             transform="matrix(1,0,0,-1,276.38,30.83)"
             style="font-variant:normal;font-weight:normal;font-size:16px;font-family:Helvetica;-inkscape-font-specification:Helvetica;writing-mode:lr-tb;fill:#4d4d4d;fill-opacity:1;fill-rule:nonzero;stroke:none"
             id="text1326"><tspan
               x="0"
               y="0"
               id="tspan1324">k</tspan></text>
        </g>
        <g
           id="g1328" />
        <g
           id="g1330" />
        <g
           id="g1332" />
        <g
           id="g1334" />
        <g
           id="g1336" />
        <g
           id="g1338">
          <text
             transform="matrix(1,0,0,-1,275.38,9.98)"
             style="font-variant:normal;font-weight:normal;font-size:20px;font-family:Helvetica;-inkscape-font-specification:Helvetica;writing-mode:lr-tb;fill:#000000;fill-opacity:1;fill-rule:nonzero;stroke:none"
             id="text1342"><tspan
               x="0"
               y="0"
               id="tspan1340">x</tspan></text>
        </g>
        <g
           id="g1344" />
        <g
           id="g1346">
          <text
             transform="matrix(0,1,1,0,19.84,197.32)"
             style="font-variant:normal;font-weight:normal;font-size:20px;font-family:Helvetica;-inkscape-font-specification:Helvetica;writing-mode:lr-tb;fill:#000000;fill-opacity:1;fill-rule:nonzero;stroke:none"
             id="text1350"><tspan
               x="0 5.5599999 12.22 22.219999"
               y="0"
               sodipodi:role="line"
               id="tspan1348">f(x)</tspan></text>
        </g>
        <g
           id="g1352" />
        <g
           id="g1354" />
        <g
           id="g1356" />
        <g
           id="g1358" />
        <g
           id="g1360" />
        <g
           id="g1362" />
        <g
           id="g1364" />
        <g
           id="g1366" />
        <g
           id="g1368" />
        <g
           id="g1370" />
        <g
           id="g1372" />
        <g
           id="g1374">
          <text
             transform="matrix(1,0,0,-1,536.3,244.12)"
             style="font-variant:normal;font-weight:normal;font-size:20px;font-family:Helvetica;-inkscape-font-specification:Helvetica;writing-mode:lr-tb;fill:#000000;fill-opacity:1;fill-rule:nonzero;stroke:none"
             id="text1378"><tspan
               x="0"
               y="0"
               id="tspan1376">n</tspan></text>
        </g>
        <g
           id="g1380" />
        <g
           id="g1382" />
        <g
           id="g1384" />
        <g
           id="g1386" />
        <g
           id="g1388">
          <path
             d="m 538.03,222.95 h 13.82"
             style="fill:none;stroke:#01ff00;stroke-width:1.07;stroke-linecap:butt;stroke-linejoin:round;stroke-miterlimit:10;stroke-dasharray:none;stroke-opacity:1"
             id="path1390" />
        </g>
        <g
           id="g1392" />
        <g
           id="g1394">
          <path
             d="m 538.03,222.95 h 13.82"
             style="fill:none;stroke:#01ff00;stroke-width:1.07;stroke-linecap:butt;stroke-linejoin:round;stroke-miterlimit:10;stroke-dasharray:none;stroke-opacity:1"
             id="path1396" />
        </g>
        <g
           id="g1398" />
        <g
           id="g1400">
          <path
             d="m 538.03,222.95 h 13.82"
             style="fill:none;stroke:#01ff00;stroke-width:1.07;stroke-linecap:butt;stroke-linejoin:round;stroke-miterlimit:10;stroke-dasharray:none;stroke-opacity:1"
             id="path1402" />
        </g>
        <g
           id="g1404" />
        <g
           id="g1406">
          <path
             d="m 538.03,222.95 h 13.82"
             style="fill:none;stroke:#01ff00;stroke-width:1.07;stroke-linecap:butt;stroke-linejoin:round;stroke-miterlimit:10;stroke-dasharray:none;stroke-opacity:1"
             id="path1408" />
        </g>
        <g
           id="g1410" />
        <g
           id="g1412" />
        <g
           id="g1414" />
        <g
           id="g1416">
          <path
             d="m 538.03,205.67 h 13.82"
             style="fill:none;stroke:#0000ff;stroke-width:1.07;stroke-linecap:butt;stroke-linejoin:round;stroke-miterlimit:10;stroke-dasharray:none;stroke-opacity:1"
             id="path1418" />
        </g>
        <g
           id="g1420" />
        <g
           id="g1422">
          <path
             d="m 538.03,205.67 h 13.82"
             style="fill:none;stroke:#0000ff;stroke-width:1.07;stroke-linecap:butt;stroke-linejoin:round;stroke-miterlimit:10;stroke-dasharray:none;stroke-opacity:1"
             id="path1424" />
        </g>
        <g
           id="g1426" />
        <g
           id="g1428">
          <path
             d="m 538.03,205.67 h 13.82"
             style="fill:none;stroke:#0000ff;stroke-width:1.07;stroke-linecap:butt;stroke-linejoin:round;stroke-miterlimit:10;stroke-dasharray:none;stroke-opacity:1"
             id="path1430" />
        </g>
        <g
           id="g1432" />
        <g
           id="g1434">
          <path
             d="m 538.03,205.67 h 13.82"
             style="fill:none;stroke:#0000ff;stroke-width:1.07;stroke-linecap:butt;stroke-linejoin:round;stroke-miterlimit:10;stroke-dasharray:none;stroke-opacity:1"
             id="path1436" />
        </g>
        <g
           id="g1438" />
        <g
           id="g1440" />
        <g
           id="g1442" />
        <g
           id="g1444">
          <path
             d="m 538.03,188.39 h 13.82"
             style="fill:none;stroke:#ff0000;stroke-width:1.07;stroke-linecap:butt;stroke-linejoin:round;stroke-miterlimit:10;stroke-dasharray:none;stroke-opacity:1"
             id="path1446" />
        </g>
        <g
           id="g1448" />
        <g
           id="g1450">
          <path
             d="m 538.03,188.39 h 13.82"
             style="fill:none;stroke:#ff0000;stroke-width:1.07;stroke-linecap:butt;stroke-linejoin:round;stroke-miterlimit:10;stroke-dasharray:none;stroke-opacity:1"
             id="path1452" />
        </g>
        <g
           id="g1454" />
        <g
           id="g1456">
          <path
             d="m 538.03,188.39 h 13.82"
             style="fill:none;stroke:#ff0000;stroke-width:1.07;stroke-linecap:butt;stroke-linejoin:round;stroke-miterlimit:10;stroke-dasharray:none;stroke-opacity:1"
             id="path1458" />
        </g>
        <g
           id="g1460" />
        <g
           id="g1462">
          <path
             d="m 538.03,188.39 h 13.82"
             style="fill:none;stroke:#ff0000;stroke-width:1.07;stroke-linecap:butt;stroke-linejoin:round;stroke-miterlimit:10;stroke-dasharray:none;stroke-opacity:1"
             id="path1464" />
        </g>
        <g
           id="g1466" />
        <g
           id="g1468" />
        <g
           id="g1470" />
        <g
           id="g1472">
          <path
             d="m 538.03,171.11 h 13.82"
             style="fill:none;stroke:#000000;stroke-width:1.07;stroke-linecap:butt;stroke-linejoin:round;stroke-miterlimit:10;stroke-dasharray:none;stroke-opacity:1"
             id="path1474" />
        </g>
        <g
           id="g1476" />
        <g
           id="g1478">
          <path
             d="m 538.03,171.11 h 13.82"
             style="fill:none;stroke:#000000;stroke-width:1.07;stroke-linecap:butt;stroke-linejoin:round;stroke-miterlimit:10;stroke-dasharray:none;stroke-opacity:1"
             id="path1480" />
        </g>
        <g
           id="g1482" />
        <g
           id="g1484">
          <path
             d="m 538.03,171.11 h 13.82"
             style="fill:none;stroke:#000000;stroke-width:1.07;stroke-linecap:butt;stroke-linejoin:round;stroke-miterlimit:10;stroke-dasharray:none;stroke-opacity:1"
             id="path1486" />
        </g>
        <g
           id="g1488" />
        <g
           id="g1490">
          <path
             d="m 538.03,171.11 h 13.82"
             style="fill:none;stroke:#000000;stroke-width:1.07;stroke-linecap:butt;stroke-linejoin:round;stroke-miterlimit:10;stroke-dasharray:none;stroke-opacity:1"
             id="path1492" />
        </g>
        <g
           id="g1494" />
        <g
           id="g1496" />
        <g
           id="g1498" />
        <g
           id="g1500">
          <text
             transform="matrix(1,0,0,-1,563.54,217.2)"
             style="font-variant:normal;font-weight:normal;font-size:16px;font-family:Helvetica;-inkscape-font-specification:Helvetica;writing-mode:lr-tb;fill:#000000;fill-opacity:1;fill-rule:nonzero;stroke:none"
             id="text1504"><tspan
               x="0"
               y="0"
               id="tspan1502">2</tspan></text>
        </g>
        <g
           id="g1506" />
        <g
           id="g1508" />
        <g
           id="g1510" />
        <g
           id="g1512" />
        <g
           id="g1514">
          <text
             transform="matrix(1,0,0,-1,563.54,199.92)"
             style="font-variant:normal;font-weight:normal;font-size:16px;font-family:Helvetica;-inkscape-font-specification:Helvetica;writing-mode:lr-tb;fill:#000000;fill-opacity:1;fill-rule:nonzero;stroke:none"
             id="text1518"><tspan
               x="0"
               y="0"
               id="tspan1516">5</tspan></text>
        </g>
        <g
           id="g1520" />
        <g
           id="g1522" />
        <g
           id="g1524" />
        <g
           id="g1526" />
        <g
           id="g1528">
          <text
             transform="matrix(1,0,0,-1,563.54,182.64)"
             style="font-variant:normal;font-weight:normal;font-size:16px;font-family:Helvetica;-inkscape-font-specification:Helvetica;writing-mode:lr-tb;fill:#000000;fill-opacity:1;fill-rule:nonzero;stroke:none"
             id="text1532"><tspan
               x="0 8.8959999"
               y="0"
               sodipodi:role="line"
               id="tspan1530">10</tspan></text>
        </g>
        <g
           id="g1534" />
        <g
           id="g1536" />
        <g
           id="g1538" />
        <g
           id="g1540" />
        <g
           id="g1542">
          <text
             transform="matrix(1,0,0,-1,563.54,165.36)"
             style="font-variant:normal;font-weight:normal;font-size:16px;font-family:Helvetica;-inkscape-font-specification:Helvetica;writing-mode:lr-tb;fill:#000000;fill-opacity:1;fill-rule:nonzero;stroke:none"
             id="text1546"><tspan
               x="0 8.8959999"
               y="0"
               sodipodi:role="line"
               id="tspan1544">15</tspan></text>
        </g>
        <g
           id="g1548" />
        <g
           id="g1550" />
        <g
           id="g1552" />
        <g
           id="g1554" />
        <g
           id="g1556" />
        <g
           id="g1558" />
        <g
           id="g1560" />
        <g
           id="g1562" />
        <g
           id="g1564" />
        <g
           id="g1566" />
        <g
           id="g1568" />
        <g
           id="g1570" />
        <g
           id="g1572" />
      </g>
      <g
         transform="matrix(3.81984,0,0,3.81984,107.69073,100.42661)"
         ns9:version="1.3.0"
         ns9:texconverter="pdflatex"
         ns9:pdfconverter="inkscape"
         ns9:text="$f(x)=b\\frac{x^n}{k^n+x^n}$"
         ns9:preamble="/home/andbrav/.config/inkscape/extensions/textext/default_packages.tex"
         ns9:scale="2.864884029207991"
         ns9:alignment="middle center"
         ns9:inkscapeversion="1.0.2"
         ns9:jacobian_sqrt="3.81984"
         id="g903">
        <defs
           id="id-2f4ea963-00e3-46a1-b92c-1f3f4b67a9d2">
          <g
             id="id-fbb413b2-6d96-44df-94dc-64a443d6e0d5">
            <symbol
               overflow="visible"
               id="id-4ebd0bdc-349f-4f66-b5da-d509b84adf7a">
              <path
                 style="stroke:none"
                 d=""
                 id="id-6a65ec11-149e-432d-9d20-8160a7e6f3b6" />
            </symbol>
            <symbol
               overflow="visible"
               id="id-73278fda-849d-4d28-a022-56b6660b516a">
              <path
                 style="stroke:none"
                 d="m 3.65625,-3.984375 h 0.859375 c 0.203125,0 0.296875,0 0.296875,-0.203125 0,-0.109375 -0.09375,-0.109375 -0.265625,-0.109375 H 3.71875 L 3.921875,-5.4375 c 0.046875,-0.203125 0.1875,-0.90625 0.25,-1.03125 0.078125,-0.1875 0.25,-0.34375 0.46875,-0.34375 0.03125,0 0.296875,0 0.484375,0.1875 -0.4375,0.03125 -0.546875,0.390625 -0.546875,0.53125 0,0.234375 0.1875,0.359375 0.375,0.359375 C 5.21875,-5.734375 5.5,-5.96875 5.5,-6.34375 c 0,-0.453125 -0.453125,-0.6875 -0.859375,-0.6875 -0.34375,0 -0.96875,0.1875 -1.265625,1.171875 -0.0625,0.203125 -0.09375,0.3125 -0.328125,1.5625 h -0.6875 c -0.203125,0 -0.3125,0 -0.3125,0.1875 0,0.125 0.09375,0.125 0.28125,0.125 h 0.65625 L 2.25,-0.046875 c -0.1875,0.96875 -0.359375,1.875 -0.875,1.875 -0.046875,0 -0.28125,0 -0.484375,-0.1875 C 1.359375,1.609375 1.453125,1.25 1.453125,1.109375 1.453125,0.875 1.265625,0.75 1.078125,0.75 0.8125,0.75 0.53125,0.984375 0.53125,1.359375 c 0,0.4375 0.4375,0.6875 0.84375,0.6875 0.546875,0 0.953125,-0.59375 1.125,-0.96875 0.328125,-0.625 0.546875,-1.828125 0.5625,-1.90625 z m 0,0"
                 id="id-0ead549c-a25f-4fc8-b08d-cfe824bd924b" />
            </symbol>
            <symbol
               overflow="visible"
               id="id-29108d02-cd7e-4b80-89fc-da8f30309413">
              <path
                 style="stroke:none"
                 d="M 3.328125,-3.015625 C 3.390625,-3.265625 3.625,-4.1875 4.3125,-4.1875 c 0.046875,0 0.296875,0 0.5,0.125 C 4.53125,-4 4.34375,-3.765625 4.34375,-3.515625 c 0,0.15625 0.109375,0.34375 0.375,0.34375 0.21875,0 0.53125,-0.171875 0.53125,-0.578125 0,-0.515625 -0.578125,-0.65625 -0.921875,-0.65625 -0.578125,0 -0.921875,0.53125 -1.046875,0.75 -0.25,-0.65625 -0.78125,-0.75 -1.078125,-0.75 -1.03125,0 -1.609375,1.28125 -1.609375,1.53125 0,0.109375 0.109375,0.109375 0.125,0.109375 0.078125,0 0.109375,-0.03125 0.125,-0.109375 0.34375,-1.0625 1,-1.3125 1.34375,-1.3125 0.1875,0 0.53125,0.09375 0.53125,0.671875 0,0.3125 -0.171875,0.96875 -0.53125,2.375 -0.15625,0.609375 -0.515625,1.03125 -0.953125,1.03125 -0.0625,0 -0.28125,0 -0.5,-0.125 0.25,-0.0625 0.46875,-0.265625 0.46875,-0.546875 0,-0.265625 -0.21875,-0.34375 -0.359375,-0.34375 -0.3125,0 -0.546875,0.25 -0.546875,0.578125 0,0.453125 0.484375,0.65625 0.921875,0.65625 0.671875,0 1.03125,-0.703125 1.046875,-0.75 0.125,0.359375 0.484375,0.75 1.078125,0.75 1.03125,0 1.59375,-1.28125 1.59375,-1.53125 0,-0.109375 -0.078125,-0.109375 -0.109375,-0.109375 -0.09375,0 -0.109375,0.046875 -0.140625,0.109375 -0.328125,1.078125 -1,1.3125 -1.3125,1.3125 -0.390625,0 -0.546875,-0.3125 -0.546875,-0.65625 0,-0.21875 0.046875,-0.4375 0.15625,-0.875 z m 0,0"
                 id="id-401438a3-daae-4466-b1cc-3749f37bfa9b" />
            </symbol>
            <symbol
               overflow="visible"
               id="id-0898c7d0-3609-4d18-bdcb-8cb686b396e7">
              <path
                 style="stroke:none"
                 d="m 2.375,-6.8125 c 0,0 0,-0.109375 -0.125,-0.109375 -0.21875,0 -0.953125,0.078125 -1.21875,0.109375 -0.078125,0 -0.1875,0.015625 -0.1875,0.1875 0,0.125 0.09375,0.125 0.25,0.125 0.46875,0 0.484375,0.0625 0.484375,0.171875 0,0.0625 -0.078125,0.40625 -0.125,0.609375 l -0.828125,3.25 c -0.109375,0.5 -0.15625,0.671875 -0.15625,1.015625 0,0.9375 0.53125,1.5625 1.265625,1.5625 1.171875,0 2.40625,-1.484375 2.40625,-2.921875 0,-0.90625 -0.53125,-1.59375 -1.328125,-1.59375 -0.453125,0 -0.875,0.296875 -1.171875,0.59375 z M 1.453125,-3.046875 C 1.5,-3.265625 1.5,-3.28125 1.59375,-3.390625 2.078125,-4.03125 2.53125,-4.1875 2.796875,-4.1875 c 0.359375,0 0.625,0.296875 0.625,0.9375 0,0.59375 -0.328125,1.734375 -0.515625,2.109375 -0.328125,0.671875 -0.78125,1.03125 -1.171875,1.03125 -0.34375,0 -0.671875,-0.265625 -0.671875,-1 0,-0.203125 0,-0.390625 0.15625,-1.015625 z m 0,0"
                 id="id-bf02c3e2-ddf3-4439-b5bc-bb3c0681cb6a" />
            </symbol>
            <symbol
               overflow="visible"
               id="id-1b332460-9168-4c93-a59e-edc19f6bcc39">
              <path
                 style="stroke:none"
                 d=""
                 id="id-5f296287-c26d-4ab8-bc31-6ddb940e7298" />
            </symbol>
            <symbol
               overflow="visible"
               id="id-bf41662b-92cb-4623-9a1b-a16b5cb7284d">
              <path
                 style="stroke:none"
                 d="m 3.296875,2.390625 c 0,-0.03125 0,-0.046875 -0.171875,-0.21875 C 1.890625,0.921875 1.5625,-0.96875 1.5625,-2.5 c 0,-1.734375 0.375,-3.46875 1.609375,-4.703125 0.125,-0.125 0.125,-0.140625 0.125,-0.171875 0,-0.078125 -0.03125,-0.109375 -0.09375,-0.109375 -0.109375,0 -1,0.6875 -1.59375,1.953125 -0.5,1.09375 -0.625,2.203125 -0.625,3.03125 0,0.78125 0.109375,1.984375 0.65625,3.125 C 2.25,1.84375 3.09375,2.5 3.203125,2.5 c 0.0625,0 0.09375,-0.03125 0.09375,-0.109375 z m 0,0"
                 id="id-2e8cbc43-6db4-4d98-aa1a-6b7961c76be2" />
            </symbol>
            <symbol
               overflow="visible"
               id="id-fc070ec4-9dd4-4474-813b-6356cf2d7c32">
              <path
                 style="stroke:none"
                 d="m 2.875,-2.5 c 0,-0.765625 -0.109375,-1.96875 -0.65625,-3.109375 -0.59375,-1.21875 -1.453125,-1.875 -1.546875,-1.875 -0.0625,0 -0.109375,0.046875 -0.109375,0.109375 0,0.03125 0,0.046875 0.1875,0.234375 0.984375,0.984375 1.546875,2.5625 1.546875,4.640625 0,1.71875 -0.359375,3.46875 -1.59375,4.71875 C 0.5625,2.34375 0.5625,2.359375 0.5625,2.390625 0.5625,2.453125 0.609375,2.5 0.671875,2.5 0.765625,2.5 1.671875,1.8125 2.25,0.546875 2.765625,-0.546875 2.875,-1.65625 2.875,-2.5 Z m 0,0"
                 id="id-c5652a37-f37e-442b-a111-7d71f1a9511a" />
            </symbol>
            <symbol
               overflow="visible"
               id="id-f9558467-91d9-495f-aeb5-092fce7337e0">
              <path
                 style="stroke:none"
                 d="m 6.84375,-3.265625 c 0.15625,0 0.34375,0 0.34375,-0.1875 C 7.1875,-3.65625 7,-3.65625 6.859375,-3.65625 h -5.96875 c -0.140625,0 -0.328125,0 -0.328125,0.203125 0,0.1875 0.1875,0.1875 0.328125,0.1875 z m 0.015625,1.9375 c 0.140625,0 0.328125,0 0.328125,-0.203125 0,-0.1875 -0.1875,-0.1875 -0.34375,-0.1875 H 0.890625 c -0.140625,0 -0.328125,0 -0.328125,0.1875 0,0.203125 0.1875,0.203125 0.328125,0.203125 z m 0,0"
                 id="id-ab3241a7-2fca-4723-8887-3e1597947628" />
            </symbol>
            <symbol
               overflow="visible"
               id="id-adac9f66-e559-4eb3-a594-4b9f7189a4b6">
              <path
                 style="stroke:none"
                 d=""
                 id="id-087e1ee1-3cf6-49d7-b990-061c61c50a6f" />
            </symbol>
            <symbol
               overflow="visible"
               id="id-da8a8bdd-51d1-48e1-bef6-479bc79d1c7e">
              <path
                 style="stroke:none"
                 d="M 1.734375,-0.734375 C 1.671875,-0.5 1.4375,-0.125 1.078125,-0.125 c -0.015625,0 -0.234375,0 -0.375,-0.09375 0.28125,-0.09375 0.3125,-0.34375 0.3125,-0.390625 0,-0.15625 -0.125,-0.25 -0.28125,-0.25 -0.203125,0 -0.40625,0.15625 -0.40625,0.421875 0,0.34375 0.390625,0.5 0.734375,0.5 0.328125,0 0.609375,-0.1875 0.78125,-0.484375 C 2.015625,-0.0625 2.390625,0.0625 2.671875,0.0625 c 0.8125,0 1.234375,-0.859375 1.234375,-1.0625 0,-0.09375 -0.09375,-0.09375 -0.109375,-0.09375 -0.109375,0 -0.109375,0.046875 -0.140625,0.125 -0.140625,0.484375 -0.5625,0.84375 -0.953125,0.84375 -0.28125,0 -0.421875,-0.1875 -0.421875,-0.453125 0,-0.1875 0.171875,-0.8125 0.359375,-1.59375 C 2.78125,-2.703125 3.09375,-2.875 3.328125,-2.875 c 0.015625,0 0.21875,0 0.375,0.09375 -0.21875,0.0625 -0.3125,0.265625 -0.3125,0.390625 0,0.140625 0.125,0.25 0.28125,0.25 0.15625,0 0.390625,-0.125 0.390625,-0.421875 0,-0.390625 -0.453125,-0.515625 -0.71875,-0.515625 -0.359375,0 -0.640625,0.234375 -0.78125,0.5 -0.125,-0.28125 -0.453125,-0.5 -0.84375,-0.5 C 0.9375,-3.078125 0.5,-2.21875 0.5,-2 c 0,0.078125 0.09375,0.078125 0.109375,0.078125 0.09375,0 0.09375,-0.015625 0.140625,-0.109375 C 0.921875,-2.578125 1.359375,-2.875 1.703125,-2.875 1.9375,-2.875 2.125,-2.75 2.125,-2.421875 2.125,-2.28125 2.03125,-1.9375 1.96875,-1.6875 Z m 0,0"
                 id="id-83629aef-db6e-460d-af23-1e1b55ce8881" />
            </symbol>
            <symbol
               overflow="visible"
               id="id-caa051cd-0d88-4744-ad64-7c31384ea279">
              <path
                 style="stroke:none"
                 d="m 2.1875,-4.625 c 0,-0.015625 0.015625,-0.109375 0.015625,-0.109375 0,-0.046875 -0.015625,-0.109375 -0.109375,-0.109375 -0.140625,0 -0.71875,0.0625 -0.890625,0.078125 -0.046875,0 -0.15625,0.015625 -0.15625,0.15625 0,0.09375 0.109375,0.09375 0.1875,0.09375 0.328125,0 0.328125,0.0625 0.328125,0.109375 0,0.046875 -0.015625,0.09375 -0.015625,0.15625 L 0.5625,-0.3125 c -0.046875,0.125 -0.046875,0.140625 -0.046875,0.15625 0,0.109375 0.09375,0.21875 0.25,0.21875 0.1875,0 0.265625,-0.125 0.3125,-0.28125 0.015625,-0.03125 0.3125,-1.265625 0.34375,-1.359375 0.5,0.046875 0.890625,0.21875 0.890625,0.578125 0,0.03125 0,0.0625 -0.015625,0.140625 -0.03125,0.09375 -0.03125,0.140625 -0.03125,0.21875 0,0.484375 0.40625,0.703125 0.75,0.703125 0.671875,0 0.875,-1.046875 0.875,-1.0625 0,-0.09375 -0.078125,-0.09375 -0.109375,-0.09375 -0.09375,0 -0.109375,0.046875 -0.140625,0.171875 C 3.5625,-0.625 3.375,-0.125 3.03125,-0.125 c -0.1875,0 -0.25,-0.171875 -0.25,-0.359375 0,-0.125 0,-0.140625 0.046875,-0.3125 0.015625,-0.03125 0.03125,-0.140625 0.03125,-0.21875 0,-0.625 -0.828125,-0.71875 -1.125,-0.734375 C 1.9375,-1.875 2.1875,-2.109375 2.3125,-2.21875 2.671875,-2.546875 3.015625,-2.875 3.40625,-2.875 c 0.078125,0 0.171875,0.015625 0.234375,0.09375 C 3.34375,-2.734375 3.28125,-2.5 3.28125,-2.390625 c 0,0.140625 0.109375,0.25 0.265625,0.25 0.203125,0 0.40625,-0.15625 0.40625,-0.4375 0,-0.234375 -0.171875,-0.5 -0.53125,-0.5 -0.40625,0 -0.765625,0.296875 -1.125,0.625 C 2,-2.1875 1.78125,-1.96875 1.484375,-1.84375 Z m 0,0"
                 id="id-9cad8cb6-bfed-4e0b-bb6a-482f7b0221fb" />
            </symbol>
            <symbol
               overflow="visible"
               id="id-eaed6285-1d1f-44f4-a3b4-285d76c25f2a">
              <path
                 style="stroke:none"
                 d=""
                 id="id-b3b3f471-d6db-48a7-a086-a23c9d85ac01" />
            </symbol>
            <symbol
               overflow="visible"
               id="id-a1fed597-8cb2-45ba-a3e6-62e6833af29a">
              <path
                 style="stroke:none"
                 d="m 0.96875,-0.484375 c -0.03125,0.125 -0.078125,0.34375 -0.078125,0.359375 0,0.109375 0.09375,0.1875 0.1875,0.1875 0.0625,0 0.171875,-0.046875 0.234375,-0.171875 0,-0.03125 0.0625,-0.265625 0.09375,-0.390625 0.171875,-0.671875 0.171875,-0.6875 0.171875,-0.703125 0.078125,-0.125 0.4375,-0.828125 1.03125,-0.828125 0.25,0 0.359375,0.125 0.359375,0.359375 0,0.28125 -0.21875,0.796875 -0.328125,1.078125 -0.03125,0.0625 -0.046875,0.125 -0.046875,0.203125 0,0.265625 0.25,0.453125 0.546875,0.453125 0.53125,0 0.796875,-0.65625 0.796875,-0.78125 0,-0.0625 -0.078125,-0.0625 -0.09375,-0.0625 -0.09375,0 -0.09375,0.015625 -0.125,0.109375 C 3.625,-0.375 3.390625,-0.109375 3.15625,-0.109375 3.046875,-0.109375 3,-0.1875 3,-0.296875 3,-0.40625 3.03125,-0.453125 3.078125,-0.5625 c 0.078125,-0.203125 0.3125,-0.765625 0.3125,-1.046875 0,-0.375 -0.265625,-0.59375 -0.75,-0.59375 -0.453125,0 -0.765625,0.28125 -0.9375,0.5 -0.015625,-0.421875 -0.421875,-0.5 -0.609375,-0.5 -0.5,0 -0.640625,0.765625 -0.640625,0.765625 0,0.078125 0.078125,0.078125 0.109375,0.078125 0.078125,0 0.09375,-0.03125 0.109375,-0.09375 C 0.75,-1.75 0.859375,-2.03125 1.078125,-2.03125 c 0.15625,0 0.203125,0.15625 0.203125,0.265625 0,0.0625 -0.0625,0.25 -0.078125,0.390625 -0.046875,0.125 -0.09375,0.328125 -0.109375,0.4375 z m 0,0"
                 id="id-8219bd82-c579-4111-a9c4-c827dea9d894" />
            </symbol>
            <symbol
               overflow="visible"
               id="id-ea8d6ccc-f878-4ef9-9e60-4bccc9bb9ede">
              <path
                 style="stroke:none"
                 d=""
                 id="id-950ab8db-d078-446f-9ce9-2fd8c00b9296" />
            </symbol>
            <symbol
               overflow="visible"
               id="id-e5519484-07c9-4965-9a6e-e329bedc485a">
              <path
                 style="stroke:none"
                 d="m 3.21875,-1.578125 h 2.140625 c 0.09375,0 0.25,0 0.25,-0.15625 0,-0.1875 -0.15625,-0.1875 -0.25,-0.1875 H 3.21875 V -4.0625 c 0,-0.078125 0,-0.25 -0.15625,-0.25 -0.171875,0 -0.171875,0.15625 -0.171875,0.25 v 2.140625 H 0.75 c -0.09375,0 -0.265625,0 -0.265625,0.171875 0,0.171875 0.15625,0.171875 0.265625,0.171875 H 2.890625 V 0.5625 c 0,0.09375 0,0.265625 0.15625,0.265625 0.171875,0 0.171875,-0.171875 0.171875,-0.265625 z m 0,0"
                 id="id-910b498d-19c6-450d-8877-e60017183f2c" />
            </symbol>
          </g>
        </defs>
        <g
           id="id-78df7480-1cdf-486e-8b33-c241806dc340"
           transform="translate(-149.243,-125.633)">
          <g
             style="fill:#000000;fill-opacity:1"
             id="id-34d539e6-4495-4ba4-b573-c2ebb47f8644">
            <g
               transform="translate(148.712,134.765)"
               id="g2049">
              <path
                 style="stroke:none"
                 d="m 3.65625,-3.984375 h 0.859375 c 0.203125,0 0.296875,0 0.296875,-0.203125 0,-0.109375 -0.09375,-0.109375 -0.265625,-0.109375 H 3.71875 L 3.921875,-5.4375 c 0.046875,-0.203125 0.1875,-0.90625 0.25,-1.03125 0.078125,-0.1875 0.25,-0.34375 0.46875,-0.34375 0.03125,0 0.296875,0 0.484375,0.1875 -0.4375,0.03125 -0.546875,0.390625 -0.546875,0.53125 0,0.234375 0.1875,0.359375 0.375,0.359375 C 5.21875,-5.734375 5.5,-5.96875 5.5,-6.34375 c 0,-0.453125 -0.453125,-0.6875 -0.859375,-0.6875 -0.34375,0 -0.96875,0.1875 -1.265625,1.171875 -0.0625,0.203125 -0.09375,0.3125 -0.328125,1.5625 h -0.6875 c -0.203125,0 -0.3125,0 -0.3125,0.1875 0,0.125 0.09375,0.125 0.28125,0.125 h 0.65625 L 2.25,-0.046875 c -0.1875,0.96875 -0.359375,1.875 -0.875,1.875 -0.046875,0 -0.28125,0 -0.484375,-0.1875 C 1.359375,1.609375 1.453125,1.25 1.453125,1.109375 1.453125,0.875 1.265625,0.75 1.078125,0.75 0.8125,0.75 0.53125,0.984375 0.53125,1.359375 c 0,0.4375 0.4375,0.6875 0.84375,0.6875 0.546875,0 0.953125,-0.59375 1.125,-0.96875 0.328125,-0.625 0.546875,-1.828125 0.5625,-1.90625 z m 0,0"
                 id="id-8f6f3a35-f990-47bd-b886-50248628caf1" />
            </g>
          </g>
          <g
             style="fill:#000000;fill-opacity:1"
             id="id-077e0456-7308-4281-8cd0-211e9ff7c781">
            <g
               transform="translate(154.662,134.765)"
               id="g2053">
              <path
                 style="stroke:none"
                 d="m 3.296875,2.390625 c 0,-0.03125 0,-0.046875 -0.171875,-0.21875 C 1.890625,0.921875 1.5625,-0.96875 1.5625,-2.5 c 0,-1.734375 0.375,-3.46875 1.609375,-4.703125 0.125,-0.125 0.125,-0.140625 0.125,-0.171875 0,-0.078125 -0.03125,-0.109375 -0.09375,-0.109375 -0.109375,0 -1,0.6875 -1.59375,1.953125 -0.5,1.09375 -0.625,2.203125 -0.625,3.03125 0,0.78125 0.109375,1.984375 0.65625,3.125 C 2.25,1.84375 3.09375,2.5 3.203125,2.5 c 0.0625,0 0.09375,-0.03125 0.09375,-0.109375 z m 0,0"
                 id="id-994934a6-1233-46a9-ace9-ff30cc414d70" />
            </g>
          </g>
          <g
             style="fill:#000000;fill-opacity:1"
             id="id-2f3c4f16-e462-4946-bebd-9f0806fe3e2d">
            <g
               transform="translate(158.537,134.765)"
               id="g2057">
              <path
                 style="stroke:none"
                 d="M 3.328125,-3.015625 C 3.390625,-3.265625 3.625,-4.1875 4.3125,-4.1875 c 0.046875,0 0.296875,0 0.5,0.125 C 4.53125,-4 4.34375,-3.765625 4.34375,-3.515625 c 0,0.15625 0.109375,0.34375 0.375,0.34375 0.21875,0 0.53125,-0.171875 0.53125,-0.578125 0,-0.515625 -0.578125,-0.65625 -0.921875,-0.65625 -0.578125,0 -0.921875,0.53125 -1.046875,0.75 -0.25,-0.65625 -0.78125,-0.75 -1.078125,-0.75 -1.03125,0 -1.609375,1.28125 -1.609375,1.53125 0,0.109375 0.109375,0.109375 0.125,0.109375 0.078125,0 0.109375,-0.03125 0.125,-0.109375 0.34375,-1.0625 1,-1.3125 1.34375,-1.3125 0.1875,0 0.53125,0.09375 0.53125,0.671875 0,0.3125 -0.171875,0.96875 -0.53125,2.375 -0.15625,0.609375 -0.515625,1.03125 -0.953125,1.03125 -0.0625,0 -0.28125,0 -0.5,-0.125 0.25,-0.0625 0.46875,-0.265625 0.46875,-0.546875 0,-0.265625 -0.21875,-0.34375 -0.359375,-0.34375 -0.3125,0 -0.546875,0.25 -0.546875,0.578125 0,0.453125 0.484375,0.65625 0.921875,0.65625 0.671875,0 1.03125,-0.703125 1.046875,-0.75 0.125,0.359375 0.484375,0.75 1.078125,0.75 1.03125,0 1.59375,-1.28125 1.59375,-1.53125 0,-0.109375 -0.078125,-0.109375 -0.109375,-0.109375 -0.09375,0 -0.109375,0.046875 -0.140625,0.109375 -0.328125,1.078125 -1,1.3125 -1.3125,1.3125 -0.390625,0 -0.546875,-0.3125 -0.546875,-0.65625 0,-0.21875 0.046875,-0.4375 0.15625,-0.875 z m 0,0"
                 id="id-258228d5-88f5-42dd-a7d1-ed5fb6433d15" />
            </g>
          </g>
          <g
             style="fill:#000000;fill-opacity:1"
             id="id-f4d38950-a5fd-4370-8943-addfbe4f6b24">
            <g
               transform="translate(164.231,134.765)"
               id="g2061">
              <path
                 style="stroke:none"
                 d="m 2.875,-2.5 c 0,-0.765625 -0.109375,-1.96875 -0.65625,-3.109375 -0.59375,-1.21875 -1.453125,-1.875 -1.546875,-1.875 -0.0625,0 -0.109375,0.046875 -0.109375,0.109375 0,0.03125 0,0.046875 0.1875,0.234375 0.984375,0.984375 1.546875,2.5625 1.546875,4.640625 0,1.71875 -0.359375,3.46875 -1.59375,4.71875 C 0.5625,2.34375 0.5625,2.359375 0.5625,2.390625 0.5625,2.453125 0.609375,2.5 0.671875,2.5 0.765625,2.5 1.671875,1.8125 2.25,0.546875 2.765625,-0.546875 2.875,-1.65625 2.875,-2.5 Z m 0,0"
                 id="id-f1d9f13c-cf2a-4cda-8587-d1856e347075" />
            </g>
          </g>
          <g
             style="fill:#000000;fill-opacity:1"
             id="id-01c36c5f-b4c6-4334-b982-e13bb6340e6f">
            <g
               transform="translate(170.875,134.765)"
               id="g2065">
              <path
                 style="stroke:none"
                 d="m 6.84375,-3.265625 c 0.15625,0 0.34375,0 0.34375,-0.1875 C 7.1875,-3.65625 7,-3.65625 6.859375,-3.65625 h -5.96875 c -0.140625,0 -0.328125,0 -0.328125,0.203125 0,0.1875 0.1875,0.1875 0.328125,0.1875 z m 0.015625,1.9375 c 0.140625,0 0.328125,0 0.328125,-0.203125 0,-0.1875 -0.1875,-0.1875 -0.34375,-0.1875 H 0.890625 c -0.140625,0 -0.328125,0 -0.328125,0.1875 0,0.203125 0.1875,0.203125 0.328125,0.203125 z m 0,0"
                 id="id-a515da7f-270a-427e-953f-332214adddea" />
            </g>
          </g>
          <g
             style="fill:#000000;fill-opacity:1"
             id="id-ba5ab54f-bc1b-4938-ae11-78e002ab67c4">
            <g
               transform="translate(181.388,134.765)"
               id="g2069">
              <path
                 style="stroke:none"
                 d="m 2.375,-6.8125 c 0,0 0,-0.109375 -0.125,-0.109375 -0.21875,0 -0.953125,0.078125 -1.21875,0.109375 -0.078125,0 -0.1875,0.015625 -0.1875,0.1875 0,0.125 0.09375,0.125 0.25,0.125 0.46875,0 0.484375,0.0625 0.484375,0.171875 0,0.0625 -0.078125,0.40625 -0.125,0.609375 l -0.828125,3.25 c -0.109375,0.5 -0.15625,0.671875 -0.15625,1.015625 0,0.9375 0.53125,1.5625 1.265625,1.5625 1.171875,0 2.40625,-1.484375 2.40625,-2.921875 0,-0.90625 -0.53125,-1.59375 -1.328125,-1.59375 -0.453125,0 -0.875,0.296875 -1.171875,0.59375 z M 1.453125,-3.046875 C 1.5,-3.265625 1.5,-3.28125 1.59375,-3.390625 2.078125,-4.03125 2.53125,-4.1875 2.796875,-4.1875 c 0.359375,0 0.625,0.296875 0.625,0.9375 0,0.59375 -0.328125,1.734375 -0.515625,2.109375 -0.328125,0.671875 -0.78125,1.03125 -1.171875,1.03125 -0.34375,0 -0.671875,-0.265625 -0.671875,-1 0,-0.203125 0,-0.390625 0.15625,-1.015625 z m 0,0"
                 id="id-cbba96f7-7fb8-44b9-87e8-c89748b421bd" />
            </g>
          </g>
          <g
             style="fill:#000000;fill-opacity:1"
             id="id-fab9eeff-83c5-473e-93b1-9d70107d9112">
            <g
               transform="translate(194.562,130.842)"
               id="g2073">
              <path
                 style="stroke:none"
                 d="M 1.734375,-0.734375 C 1.671875,-0.5 1.4375,-0.125 1.078125,-0.125 c -0.015625,0 -0.234375,0 -0.375,-0.09375 0.28125,-0.09375 0.3125,-0.34375 0.3125,-0.390625 0,-0.15625 -0.125,-0.25 -0.28125,-0.25 -0.203125,0 -0.40625,0.15625 -0.40625,0.421875 0,0.34375 0.390625,0.5 0.734375,0.5 0.328125,0 0.609375,-0.1875 0.78125,-0.484375 C 2.015625,-0.0625 2.390625,0.0625 2.671875,0.0625 c 0.8125,0 1.234375,-0.859375 1.234375,-1.0625 0,-0.09375 -0.09375,-0.09375 -0.109375,-0.09375 -0.109375,0 -0.109375,0.046875 -0.140625,0.125 -0.140625,0.484375 -0.5625,0.84375 -0.953125,0.84375 -0.28125,0 -0.421875,-0.1875 -0.421875,-0.453125 0,-0.1875 0.171875,-0.8125 0.359375,-1.59375 C 2.78125,-2.703125 3.09375,-2.875 3.328125,-2.875 c 0.015625,0 0.21875,0 0.375,0.09375 -0.21875,0.0625 -0.3125,0.265625 -0.3125,0.390625 0,0.140625 0.125,0.25 0.28125,0.25 0.15625,0 0.390625,-0.125 0.390625,-0.421875 0,-0.390625 -0.453125,-0.515625 -0.71875,-0.515625 -0.359375,0 -0.640625,0.234375 -0.78125,0.5 -0.125,-0.28125 -0.453125,-0.5 -0.84375,-0.5 C 0.9375,-3.078125 0.5,-2.21875 0.5,-2 c 0,0.078125 0.09375,0.078125 0.109375,0.078125 0.09375,0 0.09375,-0.015625 0.140625,-0.109375 C 0.921875,-2.578125 1.359375,-2.875 1.703125,-2.875 1.9375,-2.875 2.125,-2.75 2.125,-2.421875 2.125,-2.28125 2.03125,-1.9375 1.96875,-1.6875 Z m 0,0"
                 id="id-5c0869b8-d5bf-44c8-af4c-794cb96b9a1a" />
            </g>
          </g>
          <g
             style="fill:#000000;fill-opacity:1"
             id="id-a0111c42-2b37-4fc6-967f-240402702187">
            <g
               transform="translate(199.08,127.836)"
               id="g2077">
              <path
                 style="stroke:none"
                 d="m 0.96875,-0.484375 c -0.03125,0.125 -0.078125,0.34375 -0.078125,0.359375 0,0.109375 0.09375,0.1875 0.1875,0.1875 0.0625,0 0.171875,-0.046875 0.234375,-0.171875 0,-0.03125 0.0625,-0.265625 0.09375,-0.390625 0.171875,-0.671875 0.171875,-0.6875 0.171875,-0.703125 0.078125,-0.125 0.4375,-0.828125 1.03125,-0.828125 0.25,0 0.359375,0.125 0.359375,0.359375 0,0.28125 -0.21875,0.796875 -0.328125,1.078125 -0.03125,0.0625 -0.046875,0.125 -0.046875,0.203125 0,0.265625 0.25,0.453125 0.546875,0.453125 0.53125,0 0.796875,-0.65625 0.796875,-0.78125 0,-0.0625 -0.078125,-0.0625 -0.09375,-0.0625 -0.09375,0 -0.09375,0.015625 -0.125,0.109375 C 3.625,-0.375 3.390625,-0.109375 3.15625,-0.109375 3.046875,-0.109375 3,-0.1875 3,-0.296875 3,-0.40625 3.03125,-0.453125 3.078125,-0.5625 c 0.078125,-0.203125 0.3125,-0.765625 0.3125,-1.046875 0,-0.375 -0.265625,-0.59375 -0.75,-0.59375 -0.453125,0 -0.765625,0.28125 -0.9375,0.5 -0.015625,-0.421875 -0.421875,-0.5 -0.609375,-0.5 -0.5,0 -0.640625,0.765625 -0.640625,0.765625 0,0.078125 0.078125,0.078125 0.109375,0.078125 0.078125,0 0.09375,-0.03125 0.109375,-0.09375 C 0.75,-1.75 0.859375,-2.03125 1.078125,-2.03125 c 0.15625,0 0.203125,0.15625 0.203125,0.265625 0,0.0625 -0.0625,0.25 -0.078125,0.390625 -0.046875,0.125 -0.09375,0.328125 -0.109375,0.4375 z m 0,0"
                 id="id-9c2c732e-4fbf-4074-b4ed-ec1d68b5dc40" />
            </g>
          </g>
          <path
             style="fill:none;stroke:#000000;stroke-width:0.398;stroke-linecap:butt;stroke-linejoin:miter;stroke-miterlimit:10;stroke-opacity:1"
             d="M 3.75e-4,5.625e-4 H 24.808969"
             transform="matrix(1,0,0,-1,186.859,132.274)"
             id="id-9ee1c880-db32-44a5-bc60-1b4fd9ec4a9c" />
          <g
             style="fill:#000000;fill-opacity:1"
             id="id-0cb3bd65-5361-4c5f-ba3d-18d52d848ecc">
            <g
               transform="translate(186.859,138.2)"
               id="g2082">
              <path
                 style="stroke:none"
                 d="m 2.1875,-4.625 c 0,-0.015625 0.015625,-0.109375 0.015625,-0.109375 0,-0.046875 -0.015625,-0.109375 -0.109375,-0.109375 -0.140625,0 -0.71875,0.0625 -0.890625,0.078125 -0.046875,0 -0.15625,0.015625 -0.15625,0.15625 0,0.09375 0.109375,0.09375 0.1875,0.09375 0.328125,0 0.328125,0.0625 0.328125,0.109375 0,0.046875 -0.015625,0.09375 -0.015625,0.15625 L 0.5625,-0.3125 c -0.046875,0.125 -0.046875,0.140625 -0.046875,0.15625 0,0.109375 0.09375,0.21875 0.25,0.21875 0.1875,0 0.265625,-0.125 0.3125,-0.28125 0.015625,-0.03125 0.3125,-1.265625 0.34375,-1.359375 0.5,0.046875 0.890625,0.21875 0.890625,0.578125 0,0.03125 0,0.0625 -0.015625,0.140625 -0.03125,0.09375 -0.03125,0.140625 -0.03125,0.21875 0,0.484375 0.40625,0.703125 0.75,0.703125 0.671875,0 0.875,-1.046875 0.875,-1.0625 0,-0.09375 -0.078125,-0.09375 -0.109375,-0.09375 -0.09375,0 -0.109375,0.046875 -0.140625,0.171875 C 3.5625,-0.625 3.375,-0.125 3.03125,-0.125 c -0.1875,0 -0.25,-0.171875 -0.25,-0.359375 0,-0.125 0,-0.140625 0.046875,-0.3125 0.015625,-0.03125 0.03125,-0.140625 0.03125,-0.21875 0,-0.625 -0.828125,-0.71875 -1.125,-0.734375 C 1.9375,-1.875 2.1875,-2.109375 2.3125,-2.21875 2.671875,-2.546875 3.015625,-2.875 3.40625,-2.875 c 0.078125,0 0.171875,0.015625 0.234375,0.09375 C 3.34375,-2.734375 3.28125,-2.5 3.28125,-2.390625 c 0,0.140625 0.109375,0.25 0.265625,0.25 0.203125,0 0.40625,-0.15625 0.40625,-0.4375 0,-0.234375 -0.171875,-0.5 -0.53125,-0.5 -0.40625,0 -0.765625,0.296875 -1.125,0.625 C 2,-2.1875 1.78125,-1.96875 1.484375,-1.84375 Z m 0,0"
                 id="id-7b2eeb46-a29c-4002-b7bd-65487e7890a4" />
            </g>
          </g>
          <g
             style="fill:#000000;fill-opacity:1"
             id="id-26200e0b-84ee-4fab-aef9-63c9818265d6">
            <g
               transform="translate(191.263,136.208)"
               id="g2086">
              <path
                 style="stroke:none"
                 d="m 0.96875,-0.484375 c -0.03125,0.125 -0.078125,0.34375 -0.078125,0.359375 0,0.109375 0.09375,0.1875 0.1875,0.1875 0.0625,0 0.171875,-0.046875 0.234375,-0.171875 0,-0.03125 0.0625,-0.265625 0.09375,-0.390625 0.171875,-0.671875 0.171875,-0.6875 0.171875,-0.703125 0.078125,-0.125 0.4375,-0.828125 1.03125,-0.828125 0.25,0 0.359375,0.125 0.359375,0.359375 0,0.28125 -0.21875,0.796875 -0.328125,1.078125 -0.03125,0.0625 -0.046875,0.125 -0.046875,0.203125 0,0.265625 0.25,0.453125 0.546875,0.453125 0.53125,0 0.796875,-0.65625 0.796875,-0.78125 0,-0.0625 -0.078125,-0.0625 -0.09375,-0.0625 -0.09375,0 -0.09375,0.015625 -0.125,0.109375 C 3.625,-0.375 3.390625,-0.109375 3.15625,-0.109375 3.046875,-0.109375 3,-0.1875 3,-0.296875 3,-0.40625 3.03125,-0.453125 3.078125,-0.5625 c 0.078125,-0.203125 0.3125,-0.765625 0.3125,-1.046875 0,-0.375 -0.265625,-0.59375 -0.75,-0.59375 -0.453125,0 -0.765625,0.28125 -0.9375,0.5 -0.015625,-0.421875 -0.421875,-0.5 -0.609375,-0.5 -0.5,0 -0.640625,0.765625 -0.640625,0.765625 0,0.078125 0.078125,0.078125 0.109375,0.078125 0.078125,0 0.09375,-0.03125 0.109375,-0.09375 C 0.75,-1.75 0.859375,-2.03125 1.078125,-2.03125 c 0.15625,0 0.203125,0.15625 0.203125,0.265625 0,0.0625 -0.0625,0.25 -0.078125,0.390625 -0.046875,0.125 -0.09375,0.328125 -0.109375,0.4375 z m 0,0"
                 id="id-f9c7abf7-fbb6-4281-8e9a-9c5377f25b2a" />
            </g>
          </g>
          <g
             style="fill:#000000;fill-opacity:1"
             id="id-b72f28c7-e8de-43f4-a5a0-84a84530c295">
            <g
               transform="translate(196.149,138.2)"
               id="g2090">
              <path
                 style="stroke:none"
                 d="m 3.21875,-1.578125 h 2.140625 c 0.09375,0 0.25,0 0.25,-0.15625 0,-0.1875 -0.15625,-0.1875 -0.25,-0.1875 H 3.21875 V -4.0625 c 0,-0.078125 0,-0.25 -0.15625,-0.25 -0.171875,0 -0.171875,0.15625 -0.171875,0.25 v 2.140625 H 0.75 c -0.09375,0 -0.265625,0 -0.265625,0.171875 0,0.171875 0.15625,0.171875 0.265625,0.171875 H 2.890625 V 0.5625 c 0,0.09375 0,0.265625 0.15625,0.265625 0.171875,0 0.171875,-0.171875 0.171875,-0.265625 z m 0,0"
                 id="id-c727e164-b02e-41cf-8a8a-bdf80dbd85b9" />
            </g>
          </g>
          <g
             style="fill:#000000;fill-opacity:1"
             id="id-5995c3b5-bf2a-413c-a3d8-e45f273795c0">
            <g
               transform="translate(202.265,138.2)"
               id="g2094">
              <path
                 style="stroke:none"
                 d="M 1.734375,-0.734375 C 1.671875,-0.5 1.4375,-0.125 1.078125,-0.125 c -0.015625,0 -0.234375,0 -0.375,-0.09375 0.28125,-0.09375 0.3125,-0.34375 0.3125,-0.390625 0,-0.15625 -0.125,-0.25 -0.28125,-0.25 -0.203125,0 -0.40625,0.15625 -0.40625,0.421875 0,0.34375 0.390625,0.5 0.734375,0.5 0.328125,0 0.609375,-0.1875 0.78125,-0.484375 C 2.015625,-0.0625 2.390625,0.0625 2.671875,0.0625 c 0.8125,0 1.234375,-0.859375 1.234375,-1.0625 0,-0.09375 -0.09375,-0.09375 -0.109375,-0.09375 -0.109375,0 -0.109375,0.046875 -0.140625,0.125 -0.140625,0.484375 -0.5625,0.84375 -0.953125,0.84375 -0.28125,0 -0.421875,-0.1875 -0.421875,-0.453125 0,-0.1875 0.171875,-0.8125 0.359375,-1.59375 C 2.78125,-2.703125 3.09375,-2.875 3.328125,-2.875 c 0.015625,0 0.21875,0 0.375,0.09375 -0.21875,0.0625 -0.3125,0.265625 -0.3125,0.390625 0,0.140625 0.125,0.25 0.28125,0.25 0.15625,0 0.390625,-0.125 0.390625,-0.421875 0,-0.390625 -0.453125,-0.515625 -0.71875,-0.515625 -0.359375,0 -0.640625,0.234375 -0.78125,0.5 -0.125,-0.28125 -0.453125,-0.5 -0.84375,-0.5 C 0.9375,-3.078125 0.5,-2.21875 0.5,-2 c 0,0.078125 0.09375,0.078125 0.109375,0.078125 0.09375,0 0.09375,-0.015625 0.140625,-0.109375 C 0.921875,-2.578125 1.359375,-2.875 1.703125,-2.875 1.9375,-2.875 2.125,-2.75 2.125,-2.421875 2.125,-2.28125 2.03125,-1.9375 1.96875,-1.6875 Z m 0,0"
                 id="id-868d955b-b3bf-43fc-b842-d65a2bc92820" />
            </g>
          </g>
          <g
             style="fill:#000000;fill-opacity:1"
             id="id-3b89e774-db6c-441a-bbd1-a97a6759440b">
            <g
               transform="translate(206.783,136.208)"
               id="g2098">
              <path
                 style="stroke:none"
                 d="m 0.96875,-0.484375 c -0.03125,0.125 -0.078125,0.34375 -0.078125,0.359375 0,0.109375 0.09375,0.1875 0.1875,0.1875 0.0625,0 0.171875,-0.046875 0.234375,-0.171875 0,-0.03125 0.0625,-0.265625 0.09375,-0.390625 0.171875,-0.671875 0.171875,-0.6875 0.171875,-0.703125 0.078125,-0.125 0.4375,-0.828125 1.03125,-0.828125 0.25,0 0.359375,0.125 0.359375,0.359375 0,0.28125 -0.21875,0.796875 -0.328125,1.078125 -0.03125,0.0625 -0.046875,0.125 -0.046875,0.203125 0,0.265625 0.25,0.453125 0.546875,0.453125 0.53125,0 0.796875,-0.65625 0.796875,-0.78125 0,-0.0625 -0.078125,-0.0625 -0.09375,-0.0625 -0.09375,0 -0.09375,0.015625 -0.125,0.109375 C 3.625,-0.375 3.390625,-0.109375 3.15625,-0.109375 3.046875,-0.109375 3,-0.1875 3,-0.296875 3,-0.40625 3.03125,-0.453125 3.078125,-0.5625 c 0.078125,-0.203125 0.3125,-0.765625 0.3125,-1.046875 0,-0.375 -0.265625,-0.59375 -0.75,-0.59375 -0.453125,0 -0.765625,0.28125 -0.9375,0.5 -0.015625,-0.421875 -0.421875,-0.5 -0.609375,-0.5 -0.5,0 -0.640625,0.765625 -0.640625,0.765625 0,0.078125 0.078125,0.078125 0.109375,0.078125 0.078125,0 0.09375,-0.03125 0.109375,-0.09375 C 0.75,-1.75 0.859375,-2.03125 1.078125,-2.03125 c 0.15625,0 0.203125,0.15625 0.203125,0.265625 0,0.0625 -0.0625,0.25 -0.078125,0.390625 -0.046875,0.125 -0.09375,0.328125 -0.109375,0.4375 z m 0,0"
                 id="id-4433d81c-da93-46ed-98b0-5857b3531616" />
            </g>
          </g>
        </g>
      </g>
    </g>
  </g>
</svg>
